<ttFont>
          <CharString index="0">
            404 -20 rmoveto
            130 105 72 76 70 hvcurveto
            8 -13 rlineto
            -91 -4 62 -44 93 hhcurveto
            137 98 104 31 20 hvcurveto
            -30 64 rlineto
            -37 -47 -25 -9 -19 hhcurveto
            -23 -18 22 54 6 hvcurveto
            130 954 -137 -39 rlineto
            19 -59 -88 20 -74 46 callsubr
            96 -188 238 hvcurveto
            95 160 rmoveto
            -95 -50 105 178 257 96 351 262 35 33 -4 -10 29 hvcurveto
            -100 -750 rlineto
            -65 -55 -77 -62 -78 hhcurveto
            return
          </CharString>
          <CharString index="1">
            rmoveto
            108 60 83 97 1 hvcurveto
            72 1 -53 67 -85 hhcurveto
            -96 -66 -80 -95 -1 hvcurveto
            -74 -1 59 -70 73 hhcurveto
            -438 hmoveto
            108 60 83 31 callsubr
            -54 67 -85 hhcurveto
            -96 -66 -80 -95 -1 hvcurveto
            -74 -1 60 -70 72 hhcurveto
            return
          </CharString>
          <CharString index="2">
            rmoveto
            175 140 41 30 110 hvcurveto
            57 16 64 13 41 4 90 652 rcurveline
            -506 hlineto
            -16 -133 216 -17 -56 -422 rlineto
            -38 -69 -84 -10 -98 hhcurveto
            -216 -88 255 279 -2 hvcurveto
            359 -2 111 403 376 hhcurveto
            96 67 -21 -31 49 hvcurveto
            15 -210 rlineto
            191 hlineto
            61 317 -51 11 rlineto
            21 -81 -109 37 -229 hhcurveto
            -490 -315 -365 -548 10 hvcurveto
            -327 6 153 -316 384 hhcurveto
            return
          </CharString>
          <CharString index="3">
            260 hintmask 00000000
            hintmask 10010101
            -97 callgsubr
            hintmask 10100101
            -99 callgsubr
            hintmask 11000101
            69 550 rlineto
            hintmask 10010101
            -90 callsubr
            hintmask 00001010
            return
          </CharString>
          <CharString index="4">
            rmoveto
            -261 2 154 -187 346 hhcurveto
            356 207 176 471 61 hvcurveto
            100 765 127 25 13 105 rlineto
            -451 hlineto
            -11 -105 142 -26 -103 -765 rlineto
            -341 -44 -112 -187 -237 hhcurveto
            -172 -96 121 201 -2 hvcurveto
            52 6 68 9 77 vhcurveto
            102 774 177 26 11 105 rlineto
            -600 hlineto
            -13 -106 rlineto
            return
          </CharString>
          <CharString index="5">
            126 rmoveto
            -130 -29 -8 -97 rlineto
            520 hlineto
            7 97 -175 30 133 298 rlineto
            523 hlineto
            44 -299 -156 -29 -5 -97 rlineto
            609 hlineto
            7 97 -159 32 -250 1393 rlineto
            -282 hlineto
            -270 -959 rmoveto
            342 766 10 -159 89 -607 rlineto
            return
          </CharString>
          <CharString index="6">
            604 hlineto
            8 98 -167 29 163 1264 164 -48 callsubr
            -12 -106 -51 callgsubr
            -149 -30 rlineto
            return
          </CharString>
          <CharString index="7">
            -99 callsubr
            endchar
          </CharString>
          <CharString index="8">
            rmoveto
            492 258 433 488 -4 hvcurveto
            344 -3 -157 297 -384 95 callgsubr
            -360 3 162 -289 379 hhcurveto
            29 121 rmoveto
            -202 -66 260 287 -3 hvcurveto
            416 -3 163 354 254 150 callgsubr
            -440 4 -155 -339 -261 hhcurveto
            return
          </CharString>
          <CharString index="9">
            rmoveto
            -30 37 147 -35 125 hhcurveto
            233 210 115 231 168 -103 88 -109 83 hvcurveto
            -106 79 -70 65 6 92 rrcurveto
            92 5 82 33 84 hhcurveto
            115 80 -65 -24 19 hvcurveto
            41 189 rlineto
            15 -34 -116 22 -108 hhcurveto
            -249 -183 -135 -200 -170 117 -108 83 -59 hvcurveto
            102 -73 78 -63 -94 vvcurveto
            -110 -98 -25 -78 -119 -105 61 37 -43 vhcurveto
            return
          </CharString>
          <CharString index="10">
            514 hlineto
            9 98 -176 29 125 1171 71 -240 427 -1058 rlineto
            283 hlineto
            208 1391 133 25 11 106 callsubr
            -11 -106 162 -24 -139 -1140 -75 232 -414 1038 rlineto
            -461 hlineto
            -16 -106 159 -25 -178 -1265 -144 -29 rlineto
            return
          </CharString>
          <CharString index="11">
            rmoveto
            -6 -81 rlineto
            39 -6 30 -54 -49 vvcurveto
            -68 -37 -50 -34 -24 vhcurveto
            -2 -26 90 -57 rlineto
            87 19 119 120 167 vvcurveto
            100 -56 92 -87 19 vhcurveto
            return
          </CharString>
          <CharString index="12">
            rmoveto
            -51 -202 rlineto
            -18 40 113 -23 94 hhcurveto
            237 300 101 336 46 hvcurveto
            178 1240 -144 -44 rlineto
            21 -59 -92 23 -83 46 callsubr
            104 -188 239 121 95 53 62 66 hvcurveto
            -33 -240 rlineto
            -172 -23 -53 -38 -151 hhcurveto
            -112 -127 62 22 -36 hvcurveto
            346 411 rmoveto
            -93 -59 101 178 256 96 356 262 42 39 -6 -15 34 hvcurveto
            -109 -750 rlineto
            -62 -51 -77 -58 -84 hhcurveto
            return
          </CharString>
          <CharString index="13">
            rmoveto
            216 141 121 74 52 hvcurveto
            -53 93 rlineto
            47 callgsubr
            -119 -66 91 222 -3 hvcurveto
            339 -5 133 211 149 hhcurveto
            53 75 -88 -60 51 hvcurveto
            3 -2 44 -2 3 -3 72 266 rcurveline
            27 -63 -100 15 -77 hhcurveto
            -418 -206 -397 -325 3 hvcurveto
            -298 3 141 -163 231 hhcurveto
            return
          </CharString>
          <CharString index="14">
            rmoveto
            115 71 83 97 2 hvcurveto
            71 1 -64 68 -92 hhcurveto
            -98 -80 -80 -96 -2 hvcurveto
            -73 -1 71 -70 77 hhcurveto
            return
          </CharString>
          <CharString index="15">
            -105 callgsubr
            endchar
          </CharString>
          <CharString index="16">
            rmoveto
            215 115 177 157 10 hvcurveto
            1 11 0 12 11 vvcurveto
            -147 hlineto
            -71 -12 -30 -111 -147 hhcurveto
            -120 -26 79 64 -7 hvcurveto
            -1 14 0 13 12 vvcurveto
            -149 hlineto
            -2 -15 -1 -16 -16 vvcurveto
            -154 86 -167 215 vhcurveto
            endchar
          </CharString>
          <CharString index="17">
            -50 24 -333 -41 -16 -89 113 -71 -52 -365 rlineto
            -17 -122 -22 -140 -91 vvcurveto
            return
          </CharString>
          <CharString index="18">
            rmoveto
            119 46 247 224 36 68 -170 165 rcurveline
            -317 -431 rlineto
            return
          </CharString>
          <CharString index="19">
            hintmask 00000000
            hintmask 11001000
            211 hmoveto
            726 hlineto
            9 98 -222 29 61 471 519 794 116 24 13 106 callsubr
            hintmask 10101000
            -10 -106 rlineto
            hintmask 11001000
            153 -25 -318 -529 -67 -123 -41 138 -191 514 166 25 15 106 rlineto
            -610 hlineto
            hintmask 10101000
            -11 -106 119 -25 346 -793 -60 -471 -223 -29 rlineto
            return
          </CharString>
          <CharString index="20">
            rmoveto
            251 152 98 239 33 hvcurveto
            1 11 1 11 11 vvcurveto
            -186 hlineto
            -31 -9 -40 -39 -6 hvcurveto
            -93 -13 -14 -93 -156 hhcurveto
            -114 -34 48 76 hvcurveto
            29 7 36 30 vvcurveto
            26 -7 20 -22 vhcurveto
            -218 hlineto
            -8 -29 -1 -27 -27 vvcurveto
            -201 152 -86 222 vhcurveto
            return
          </CharString>
          <CharString index="21">
            -8 32 76 -11 71 hhcurveto
            261 1 155 273 37 302 113 933 rcurveline
            216 hlineto
            24 159 rlineto
            -218 hlineto
            18 123 rlineto
            143 19 29 97 104 hhcurveto
            69 1 44 -31 25 -18 61 174 rcurveline
            22 -53 -62 4 -54 hhcurveto
            -231 -177 -197 -248 -41 hvcurveto
            -12 -75 -142 -63 -18 -91 rlineto
            131 hlineto
            return
          </CharString>
          <CharString index="22">
            1214 -23 234 -227 123 -107 97 833 202 -202 234 227 128 callsubr
            172 89 618 83 hintmask 0000000000000000
            hintmask 0100001010000000
            -7 hmoveto
            hintmask 0010001010000000
            300 hlineto
            60 101 -5 -4 48 hvcurveto
            hintmask 0100001010000000
            -71 callgsubr
            hintmask 0100000110000000
            -10 callsubr
            hintmask 0100001010000000
            -11 -106 rlineto
            hintmask 0010010010000000
            7 callsubr
            hintmask 0100001010000000
            -44 callsubr
            1009 -95 -92 callgsubr
            hintmask 1000100001100000
            -23 -29 -28 -6 -42 hhcurveto
            hintmask 1001000001100000
            -79 callsubr
            return
          </CharString>
          <CharString index="23">
            rmoveto
            -27 -131 -109 -141 -200 -60 44 -99 rcurveline
            245 37 243 132 84 251 32 95 70 613 70 609 149 24 rcurveline
            11 106 rlineto
            -569 hlineto
            -15 -106 145 -25 -50 -435 -44 -480 -79 -390 rlinecurve
            return
          </CharString>
          <CharString index="24">
            rmoveto
            -92 -10 61 -50 115 hhcurveto
            151 101 115 29 21 hvcurveto
            return
          </CharString>
          <CharString index="25">
            rmoveto
            -238 -26 -53 -222 -191 hhcurveto
            -10 -44 5 7 -18 hvcurveto
            -37 -104 rlineto
            -24 25 60 -13 73 hhcurveto
            239 206 180 344 42 hvcurveto
            return
          </CharString>
          <CharString index="26">
            -157 -172 -5 -41 rlineto
            63 -7 41 -68 -86 vvcurveto
            -140 -100 -148 -105 -35 vhcurveto
            -2 -22 55 -91 rlineto
            180 74 217 170 271 vvcurveto
            128 -53 131 -134 36 vhcurveto
            return
          </CharString>
          <CharString index="27">
            rlineto
            10 30 73 12 67 hhcurveto
            253 108 -140 -381 3 hvcurveto
            3 -355 -138 -421 -375 -12 rrcurveto
            -51 -88 11 16 -48 hvcurveto
            return
          </CharString>
          <CharString index="28">
            -126 -300 32 -157 hhcurveto
            -50 -26 -13 -9 -16 hvcurveto
            -75 -38 -7 -240 9 -93 rrcurveto
            86 hlineto
            86 10 54 73 95 hhcurveto
            357 -1 -120 -100 rlineto
            return
          </CharString>
          <CharString index="29">
            1408 -16 123 -107 97 -97 135 1015 -20 261 131 -129 128 -105 122 -102 86 0 -20 hstemhm
            1139 300 3 1292 hintmask 0000000000000000
            hintmask 1000001001000000
            -7 hmoveto
            hintmask 0100001001000000
            300 hlineto
            60 101 -5 -4 48 hvcurveto
            hintmask 1000001001000000
            -71 callgsubr
            hintmask 1000000011000000
            -10 callsubr
            hintmask 1000001001000000
            -11 -106 rlineto
            hintmask 0100100001000000
            7 callsubr
            hintmask 1000001001000000
            -44 callsubr
            1031 -134 2 callgsubr
            hintmask 0011010000100000
            832 1171 rlineto
            hintmask 0011000100100000
            -49 callsubr
            return
          </CharString>
          <CharString index="30">
            128 80 119 100 83 hhcurveto
            66 32 -16 -134 2 hvcurveto
            1 -120 -20 -157 -16 -113 -57 -443 rcurveline
            274 hlineto
            62 505 11 80 11 96 6 85 rlinecurve
            125 78 111 91 85 hhcurveto
            53 35 -21 39 callsubr
            return
          </CharString>
          <CharString index="31">
            648 -21 154 -133 -21 42 133 callgsubr
            273 282 -192 281 hintmask 00000000
            hintmask 00101001
            69 callgsubr
            hintmask 00110101
            -77 callsubr
            -29 -160 -18 -110 rrcurveto
            hintmask 01001010
            -20 -115 -22 -124 -2 -75 rrcurveto
            -84 -2 32 -69 136 hhcurveto
            154 99 116 29 21 hvcurveto
            hintmask 10001010
            -29 64 rlineto
            11 callgsubr
            hintmask 00110001
            19 115 28 165 -43 callgsubr
            hintmask 00101001
            17 210 rlineto
            hintmask 00110001
            57 callgsubr
            endchar
          </CharString>
          <CharString index="32">
            rmoveto
            -319 174 -183 293 396 337 399 550 368 -196 244 -313 -331 -93 -84 -2 -109 vhcurveto
            -45 -313 rlineto
            152 hlineto
            80 179 rlineto
            65 44 81 42 136 hhcurveto
            204 121 -217 -354 -9 hvcurveto
            -1 -27 -1 -27 -2 -25 rrcurveto
            -874 hlineto
            -21 -58 -23 -121 -117 vvcurveto
            264 -34 rmoveto
            69 12 62 16 73 vhcurveto
            614 hlineto
            -391 -50 -157 -156 -177 hhcurveto
            -176 -82 156 187 hvcurveto
            endchar
          </CharString>
          <CharString index="33">
            -106 callsubr
            endchar
          </CharString>
          <CharString index="34">
            rmoveto
            260 hlineto
            389 971 101 -971 rlineto
            262 hlineto
            629 1402 142 25 12 105 rlineto
            -518 hlineto
            -11 -106 185 -26 -389 -929 -81 -217 -11 233 rlineto
            hintmask 10101000
            -93 914 149 25 rlineto
            hintmask 11001000
            14 106 rlineto
            -577 hlineto
            -10 -105 141 -24 14 -135 -323 -810 -69 -204 -28 233 rlineto
            hintmask 10101000
            -104 914 rlineto
            hintmask 11001000
            28 callsubr
          </CharString>
          <CharString index="35">
            77 -17 123 -106 97 625 132 537 29 callsubr
            973 299 -263 271 hintmask 00000000
            hintmask 10101010
            6 hmoveto
            hintmask 01101010
            270 hlineto
            82 121 -17 88 hhcurveto
            hintmask 10101010
            425 282 142 371 -2 hvcurveto
            -2 166 -130 136 -201 8 rrcurveto
            hintmask 10101001
            223 62 124 128 -6 218 rrcurveto
            165 -5 -102 159 -356 hhcurveto
            hintmask 10100110
            -118 -103 -15 -1 -106 hvcurveto
            -294 hlineto
            hintmask 10101010
            -13 -106 rlineto
            hintmask 01110010
            130 callgsubr
            -143 -30 rlineto
            512 758 rmoveto
            hintmask 10101001
            72 548 rlineto
            9 47 77 4 30 hhcurveto
            173 78 -77 -151 5 hvcurveto
            -238 6 -157 -96 -184 hhcurveto
            hintmask 01110010
            -52 -47 -2 3 -48 hvcurveto
            hintmask 10101010
            -95 -728 rmoveto
            77 589 rlineto
            3 36 44 3 90 hhcurveto
            205 85 -83 -172 4 hvcurveto
            -257 8 -139 -104 -232 hhcurveto
            -42 -88 8 13 -48 hvcurveto
            endchar
          </CharString>
          <CharString index="36">
            -595 hlineto
            -12 -106 166 -25 -79 -608 rlineto
            -36 -58 -120 -17 -90 hhcurveto
            -208 3 107 347 37 hvcurveto
            29 206 155 26 12 106 rlineto
            -584 20 callgsubr
            -45 -355 rlineto
            -383 -47 163 -64 267 hhcurveto
            111 135 26 52 98 hvcurveto
            -70 -540 return
          </CharString>
          <CharString index="37">
            rrcurveto
            -138 -4 -72 -65 -107 hhcurveto
            -31 -36 6 9 -17 hvcurveto
            -26 -152 rlineto
            -16 22 92 -12 53 hhcurveto
            191 100 104 189 return
          </CharString>
          <CharString index="38">
            -8 32 76 -11 71 hhcurveto
            261 1 151 262 34 271 120 975 rcurveline
            204 hlineto
            25 159 rlineto
            -207 hlineto
            11 96 24 161 27 79 104 1 rlinecurve
            69 43 -30 -18 26 hvcurveto
            60 173 rlineto
            22 -52 -62 4 -55 hhcurveto
            -231 -176 -197 -248 -41 hvcurveto
            return
          </CharString>
          <CharString index="39">
            rmoveto
            743 hlineto
            64 280 -104 23 -67 -117 -453 -46 rlineto
            269 142 329 261 222 vvcurveto
            144 -104 98 -225 -173 -173 -103 -68 -55 vhcurveto
            71 -84 rlineto
            48 48 106 57 108 hhcurveto
            100 54 -54 -96 -236 -440 -287 -136 -79 hvcurveto
            return
          </CharString>
          <CharString index="40">
            -20 -112 -25 -125 -2 -73 rrcurveto
            -92 -2 34 -62 136 hhcurveto
            154 103 112 29 19 hvcurveto
            -30 63 rlineto
            -40 -52 -23 -10 -22 hhcurveto
            -20 -12 16 48 1 hvcurveto
            3 87 23 119 17 102 rrcurveto
            return
          </CharString>
          <CharString index="41">
            rmoveto
            699 hlineto
            15 115 -233 24 103 847 -109 21 rlineto
            -3 hlineto
            -102 -83 -217 -83 -100 -21 14 -118 rcurveline
            80 7 111 20 67 28 -75 -618 rcurveline
            -234 -24 rlineto
            return
          </CharString>
          <CharString index="42">
            633 -20 -99 callsubr
            return
          </CharString>
          <CharString index="43">
            9 hmoveto
            -46 callgsubr
            618 hlineto
            11 97 -155 31 163 1263 147 -14 callgsubr
            -597 hlineto
            105 callsubr
            -71 -547 rlineto
            -597 hlineto
            71 547 168 -14 callgsubr
            -591 hlineto
            -13 -106 140 -35 callsubr
            return
          </CharString>
          <CharString index="44">
            -74 34 56 -40 89 hhcurveto
            144 123 105 54 38 hvcurveto
            -34 67 rlineto
            -35 -40 -49 -17 -25 hhcurveto
            -31 -46 35 58 -33 hvcurveto
            -221 393 118 59 159 98 83 112 rlinecurve
            27 38 20 45 55 vvcurveto
            64 -1 -46 51 -73 hhcurveto
            -62 -83 -30 -93 -6 hvcurveto
            -4 -54 -10 -51 -40 -53 -108 -144 -93 -52 -115 -75 rrcurveto
            4 hlineto
            -4 -1 rlineto
            endchar
          </CharString>
          <CharString index="45">
            rmoveto
            94 77 -270 342 -163 -156 53 -107 190 -120 96 -36 rlinecurve
            return
          </CharString>
          <CharString index="46">
            133 79 118 105 88 hhcurveto
            61 32 84 callgsubr
            -31 -162 -20 -111 rrcurveto
            return
          </CharString>
          <CharString index="47">
            rmoveto
            335 hlineto
            hintmask 10110100
            -20 callsubr
            hintmask 11010100
            73 563 rlineto
            81 hlineto
            145 59 callgsubr
            317 hlineto
            11 97 -82 30 -115 50 -182 560 -169 69 rlinecurve
            505 583 143 -2 callsubr
            135 -25 -458 -578 rlineto
            -130 hlineto
            75 578 161 -14 callgsubr
            -586 hlineto
            -13 -106 150 -25 rlineto
            hintmask 10110100
            -42 callgsubr
          </CharString>
          <CharString index="48">
            -3 116 1 -143 171 hhcurveto
            108 109 88 93 34 hvcurveto
            -75 114 rlineto
            -48 -38 -41 -57 -74 -96 -28 146 -145 hhcurveto
            return
          </CharString>
          <CharString index="49">
            rmoveto
            82 92 60 177 9 165 4 87 -9 89 -29 31 -185 -46 rcurveline
            -19 -42 20 -30 11 -96 -4 -75 rlinecurve
            -5 -112 -19 -113 -21 -72 6 -25 rcurveline
            endchar
          </CharString>
          <CharString index="50">
            rmoveto
            -200 2 139 -64 135 hhcurveto
            return
          </CharString>
          <CharString index="51">
            36 callgsubr
            hstemhm
            -73 2029 hintmask 00000000
            hintmask 10010100
            -73 hmoveto
            568 hlineto
            9 98 -207 29 210 888 80 386 57 -376 rlineto
            hintmask 01010100
            153 -1043 143 15 454 1052 140 352 -25 -400 -48 -874 rlineto
            hintmask 10100100
            -183 -28 -9 -99 rlineto
            631 hlineto
            9 98 -169 30 33 1263 rlineto
            hintmask 10001100
            171 25 rlineto
            hintmask 10010100
            12 106 rlineto
            -524 hlineto
            -65 -154 -261 -627 -64 -153 -60 -170 rcurveline
            -18 170 -128 934 rlineto
            -580 hlineto
            hintmask 10001100
            -14 -106 rlineto
            hintmask 10100100
            179 -25 -322 -32 callgsubr
            -160 -29 rlineto
            endchar
          </CharString>
          <CharString index="52">
            309 589 rmoveto
            -368 196 -244 313 325 89 84 2 106 vhcurveto
            45 313 rlineto
            -146 hlineto
            -80 -179 rlineto
            -58 -38 -86 -49 -129 hhcurveto
            -197 -121 216 355 7 hvcurveto
            27 2 26 1 26 vhcurveto
            856 hlineto
            22 57 22 122 117 vvcurveto
            319 -169 183 -285 -326 -286 -270 -402 -91 vhcurveto
            -126 2 -14 45 44 vvcurveto
            26 34 99 20 23 vhcurveto
            -170 30 rlineto
            -32 -19 -46 -129 -51 vvcurveto
            -135 114 -61 198 -2 vhcurveto
            -5 -49 -3 -49 -51 vvcurveto
            299 277 rmoveto
            390 49 158 157 173 hhcurveto
            186 58 -190 -153 -69 -11 -62 -17 -73 hvcurveto
            return
          </CharString>
          <CharString index="53">
            20 112 30 57 callsubr
            -153 -140 -98 -133 -96 vhcurveto
            return
          </CharString>
          <CharString index="54">
            59 -154 36 -77 39 1 332 -2 rcurveline
            8 103 -135 2 -13 62 -100 218 rlinecurve
            -35 83 -75 174 -57 58 225 72 133 177 -3 226 rrcurveto
            237 -2 -129 127 -380 hhcurveto
            return
          </CharString>
          <CharString index="55">
            -53 -384 -46 -303 -19 -159 rrcurveto
            return
          </CharString>
          <CharString index="56">
            -19 callgsubr
            hintmask 10010010
            -75 callgsubr
            hintmask 01010010
            -15 callgsubr
            hintmask 01100010
            -43 callsubr
            endchar
          </CharString>
          <CharString index="57">
            121 -104 rmoveto
            91 -52 136 210 rlineto
            -46 76 95 -26 114 142 callgsubr
            -2 212 -61 195 -137 118 139 214 rcurveline
            -90 51 -134 -208 rlineto
            38 -71 -86 21 -102 95 callgsubr
            1 -209 56 -185 120 -118 rrcurveto
            163 216 rmoveto
            -26 91 -11 110 -1 114 rrcurveto
            416 -3 163 354 254 hhcurveto
            79 60 -38 -69 43 hvcurveto
            -518 -1081 rmoveto
            561 986 29 -88 14 -114 1 -134 rlinecurve
            -440 4 -155 -339 -261 hhcurveto
            -88 -62 49 80 -43 hvcurveto
            return
          </CharString>
          <CharString index="58">
            -27 86 rlineto
            -995 hlineto
            -61 -372 150 -23 122 260 501 13 -143 -142 -839 -1169 rlineto
            return
          </CharString>
          <CharString index="59">
            -30 callgsubr
            -588 hlineto
            return
          </CharString>
          <CharString index="60">
            -257 -20 169 -148 -21 41 -21 1005 158 -8 -20 28 -20 hstemhm
            -65 1141 hintmask 00000000
            hintmask 00100110
            -65 hmoveto
            274 hlineto
            253 401 110 -316 rlineto
            hintmask 01000110
            -63 23 39 -42 96 hhcurveto
            166 109 121 28 16 hvcurveto
            hintmask 10001010
            -41 70 rlineto
            -44 -54 -26 -6 -20 hhcurveto
            -28 -32 54 38 -18 hvcurveto
            -171 337 445 577 rlineto
            -264 hlineto
            -255 -399 -97 302 rlineto
            hintmask 00100110
            68 -22 -51 37 -99 hhcurveto
            -144 -98 -92 -24 -17 hvcurveto
            hintmask 00110010
            38 -71 rlineto
            18 22 21 11 33 hhcurveto
            28 21 -33 -38 19 hvcurveto
            175 -355 rlineto
            endchar
          </CharString>
          <CharString index="61">
            -210 -25 161 321 116 461 130 return
          </CharString>
          <CharString index="62">
            155 35 220 85 298 vvcurveto
            178 -146 133 -322 -148 -198 -62 -5 -84 vhcurveto
            -21 -301 rlineto
            172 hlineto
            46 162 rlineto
            58 32 71 26 103 hhcurveto
            126 72 -64 -138 -260 -149 -105 -129 hvcurveto
            -122 -3 -14 -138 146 12 rlineto
            return
          </CharString>
          <CharString index="63">
            438 37 rmoveto
            163 1260 -80 callsubr
            hintmask 0000000000000000
            return
          </CharString>
          <CharString index="64">
            89 -12 -41 48 -112 hhcurveto
            -120 -98 -88 -24 -17 hvcurveto
            29 -70 rlineto
            12 20 13 7 22 hhcurveto
            21 -1 13 -14 9 -41 109 -589 rcurveline
            return
          </CharString>
          <CharString index="65">
            94 -87 rmoveto
            91 -49 104 153 rlineto
            -26 57 69 -14 80 hhcurveto
            374 246 344 386 -10 hvcurveto
            -4 171 -52 126 -96 77 111 169 rcurveline
            -90 49 -110 -166 rlineto
            22 -55 -63 11 -72 141 callsubr
            5 -163 46 -124 87 -78 rrcurveto
            165 233 rmoveto
            -6 38 -3 43 -1 49 rrcurveto
            259 -7 83 337 204 hhcurveto
            48 38 -19 -41 28 hvcurveto
            -347 -788 rmoveto
            390 675 9 -42 4 -50 2 -59 rlinecurve
            -263 6 -76 -343 -204 hhcurveto
            -59 -43 27 55 -29 hvcurveto
            return
          </CharString>
          <CharString index="66">
            -103 callgsubr
            endchar
          </CharString>
          <CharString index="67">
            65 0 98 1294 130 -106 106 hstemhm
            -70 1518 110 callsubr
            -70 hmoveto
            501 hlineto
            9 97 -151 30 333 483 201 -483 -148 -29 -8 -98 rlineto
            623 hlineto
            9 98 -138 29 -331 660 471 605 137 24 10 106 rlineto
            -499 hlineto
            -9 -106 137 -25 -317 -469 rlineto
            hintmask 11010000
            -181 470 144 callsubr
            105 rlineto
            -597 hlineto
            -11 -106 128 -26 302 -637 -496 -626 -118 -29 rlineto
            endchar
          </CharString>
          <CharString index="68">
            -20 154 1005 27 callgsubr
            return
          </CharString>
          <CharString index="69">
            -74 -1 65 -70 77 hhcurveto
            return
          </CharString>
          <CharString index="70">
            -619 18 callsubr
            return
          </CharString>
          <CharString index="71">
            430 14 rmoveto
            82 634 rlineto
            1 hlineto
            9 32 57 5 53 hhcurveto
            156 104 -98 -159 -243 -125 -158 -212 -71 -44 4 6 -33 hvcurveto
            endchar
          </CharString>
          <CharString index="72">
            -25 69 callsubr
            return
          </CharString>
          <CharString index="73">
            65 55 rmoveto
            101 87 -78 210 hhcurveto
            491 317 383 529 388 -218 261 -372 -252 -116 -74 -5 -103 hvcurveto
            -61 -345 rlineto
            163 hlineto
            75 201 rlineto
            58 50 56 45 145 hhcurveto
            237 92 -247 -287 hvcurveto
            -12 -1 -11 -11 vvcurveto
            -610 23 34 -197 106 6 266 12 196 20 rlinecurve
            -388 -41 -184 -224 -214 hhcurveto
            -171 -54 58 41 -31 hvcurveto
            -72 185 -150 -5 rlineto
            return
          </CharString>
          <CharString index="74">
            92 153 callsubr
            93 735 rlineto
            137 80 120 111 91 hhcurveto
            56 37 84 callgsubr
            -30 -162 -21 -111 rrcurveto
            return
          </CharString>
          <CharString index="75">
            rmoveto
            -296 9 145 -166 276 hhcurveto
            374 246 344 386 -10 hvcurveto
            296 -7 -149 163 -275 141 callsubr
            306 209 rmoveto
            201 31 85 184 151 hhcurveto
            110 57 -98 -226 5 hvcurveto
            -61 vlineto
            -274 -545 rmoveto
            -118 -55 108 226 -5 hvcurveto
            -1 33 0 35 2 35 rrcurveto
            444 hlineto
            -221 -24 -81 -216 -162 hhcurveto
            endchar
          </CharString>
          <CharString index="76">
            hlineto
            20 182 rlineto
            -544 hlineto
            return
          </CharString>
          <CharString index="77">
            1071 hlineto
            97 399 -150 41 -166 -293 -553 -23 130 141 rlineto
            return
          </CharString>
          <CharString index="78">
            153 -132 -21 return
          </CharString>
          <CharString index="79">
            -19 callsubr
            -106 106 74 callgsubr
            hintmask 00000000
            hintmask 10101000
            -8 hmoveto
            1154 hlineto
            79 393 -165 22 rlineto
            hintmask 01101000
            -118 -258 -502 -30 80 589 444 -23 26 198 -454 -29 73 545 384 -20 40 -209 rlineto
            171 hlineto
            23 344 rlineto
            -1034 hlineto
            hintmask 10011000
            -11 19 callsubr
            -32 callgsubr
            -155 -30 rlineto
            endchar
          </CharString>
          <CharString index="80">
            -20 -53 vvcurveto
            -61 -65 -64 -50 -20 vhcurveto
            65 -74 rlineto
            118 29 return
          </CharString>
          <CharString index="81">
            97 -97 127 1270 125 return
          </CharString>
          <CharString index="82">
            150 -20 118 1294 130 -105 105 return
          </CharString>
          <CharString index="83">
            70 0 97 328 138 959 -20 return
          </CharString>
          <CharString index="84">
            8 -11 -27 9 -28 hhcurveto
            -175 -126 -154 -123 -42 hvcurveto
            17 247 -51 30 -292 110 callgsubr
          </CharString>
          <CharString index="85">
            rmoveto
            175 hlineto
            251 1268 rlineto
            -295 hlineto
            -252 -1654 rmoveto
            -86 -5 57 -59 73 hhcurveto
            88 94 61 116 5 hvcurveto
            76 4 -43 69 -97 hhcurveto
            -84 -87 -70 -107 -5 hvcurveto
            return
          </CharString>
          <CharString index="86">
            -18 callsubr
            endchar
          </CharString>
          <CharString index="87">
            116 271 684 162 hhcurveto
            81 hlineto
            -72 -557 -152 -30 -10 -97 rlineto
            593 hlineto
            8 98 -163 29 rlineto
            return
          </CharString>
          <CharString index="88">
            0 -26 callsubr
            return
          </CharString>
          <CharString index="89">
            rmoveto
            91 43 201 224 30 105 -157 112 rcurveline
            -262 -429 rlineto
            -359 -60 rmoveto
            94 52 193 221 29 103 -160 113 rcurveline
            -250 -434 rlineto
            return
          </CharString>
          <CharString index="90">
            rmoveto
            -42 91 110 -15 82 hhcurveto
            314 185 146 180 9 hvcurveto
            6 138 -120 105 -190 -17 rrcurveto
            return
          </CharString>
          <CharString index="91">
            -30 -33 -30 -20 -28 hhcurveto
            -23 -11 45 64 hvcurveto
            36 905 rlineto
            -346 hlineto
            -270 -633 -75 -202 -29 202 -109 633 rlineto
            -512 hlineto
            hintmask 00100101
            -14 -121 rlineto
            hintmask 01001001
            170 -42 -23 -114 -73 -427 -94 -206 rlinecurve
            -22 -124 26 8 -10 hvcurveto
            -59 -262 rlineto
            hintmask 01010001
            -9 4 59 -15 23 hhcurveto
            endchar
          </CharString>
          <CharString index="92">
            290 147 291 return
          </CharString>
          <CharString index="93">
            600 hlineto
            7 98 -185 29 65 538 rlineto
            62 121 1 0 hvcurveto
            60 -27 81 -228 68 -180 rrcurveto
            return
          </CharString>
          <CharString index="94">
            282 hintmask 00000000
            hintmask 01010001
            133 122 -83 callsubr
            hintmask 10100001
            -90 callgsubr
            hintmask 01010100
            -61 callgsubr
            hintmask 01010001
            -52 callsubr
            hintmask 00001010
            return
          </CharString>
          <CharString index="95">
            -79 callsubr
            endchar
          </CharString>
          <CharString index="96">
            167 806 rmoveto
            -425 344 -340 422 422 345 340 425 424 -345 340 -422 -422 -344 -340 -424 vhcurveto
            130 hmoveto
            356 280 292 356 357 280 -292 -356 -357 -280 -291 -357 -356 -280 291 357 vhcurveto
            return
          </CharString>
          <CharString index="97">
            -108 -108 -15 -1 -100 hvcurveto
            -309 hlineto
            return
          </CharString>
          <CharString index="98">
            -50 24 -390 -51 -19 -81 161 -51 return
          </CharString>
          <CharString index="99">
            -31 callsubr
            endchar
          </CharString>
          <CharString index="100">
            126 60 195 132 79 34 -78 -123 -122 -56 -207 -130 -85 -34 85 124 vhcurveto
            return
          </CharString>
          <CharString index="101">
            -513 152 -131 -21 493 -29 callsubr
            1016 return
          </CharString>
          <CharString index="102">
            127 945 rlineto
            -268 hlineto
            -119 -888 rlineto
            -69 -55 -85 -64 -88 hhcurveto
            -75 -41 35 115 57 12 84 16 120 hvcurveto
            83 610 rlineto
            -268 hlineto
            -108 -795 -4 -25 3 -28 3 -26 rlinecurve
            -74 -53 -91 -73 -94 hhcurveto
            -75 -41 35 115 77 22 131 12 97 hvcurveto
            return
          </CharString>
          <CharString index="103">
            -234 840 rmoveto
            337 37 151 261 218 150 callgsubr
            -21 0 -19 -1 -20 vhcurveto
            -411 -719 rmoveto
            -202 -66 260 287 -3 hvcurveto
            21 0 22 1 21 vhcurveto
            675 hlineto
            -356 -32 -147 -255 -226 hhcurveto
            endchar
          </CharString>
          <CharString index="104">
            2 callgsubr
            hintmask 11100100
            832 1171 rlineto
            hintmask 11010100
            4 callsubr
          </CharString>
          <CharString index="105">
            27 13 106 rlineto
            -463 hlineto
            -13 -106 return
          </CharString>
          <CharString index="106">
            186 233 187 273 229 vvcurveto
            121 -48 84 -105 -84 -50 -49 -74 vhcurveto
            -57 33 -74 -48 vvcurveto
            -195 -111 -198 -112 -165 vhcurveto
            -59 -93 -26 175 -122 642 rlineto
            82 -15 -48 54 -113 hhcurveto
            -124 -104 -106 -25 -17 hvcurveto
            return
          </CharString>
          <CharString index="107">
            -68 callgsubr
            endchar
          </CharString>
          <CharString index="108">
            -54 24 -332 -41 -17 -89 119 -73 -24 -181 rlineto
            -327 -44 79 -93 232 hhcurveto
            return
          </CharString>
          <CharString index="109">
            -176 104 -140 191 259 170 227 219 172 -94 128 -205 -246 -179 -218 -212 vhcurveto
            return
          </CharString>
          <CharString index="110">
            136 478 141 677 124 return
          </CharString>
          <CharString index="111">
            -49 callsubr
            endchar
          </CharString>
          <CharString index="112">
            145 25 9 106 rlineto
            -559 hlineto
            -13 -105 132 -26 return
          </CharString>
          <CharString index="113">
            153 -147 -21 531 112 302 201 -188 153 -109 144 return
          </CharString>
          <CharString index="114">
            139 -25 -166 -32 callgsubr
            -153 -30 rlineto
            return
          </CharString>
          <CharString index="115">
            470 -30 22 195 -476 -18 72 549 408 -22 30 -213 rlineto
            177 hlineto
            33 351 rlineto
            -1061 hlineto
            return
          </CharString>
          <CharString index="116">
            1 -16 110 959 109 hstem
            102 283 513 287 vstem
            102 461 rmoveto
            -252 128 -225 328 364 263 310 391 262 -125 215 -329 -358 -271 -298 -403 vhcurveto
            return
          </CharString>
          <CharString index="117">
            26 196 rlineto
            166 hlineto
            19 173 -164 -11 33 242 -193 -19 rlineto
            return
          </CharString>
          <CharString index="118">
            -68 -531 rlineto
            267 hlineto
            68 531 rlineto
            183 hlineto
            -5 -34 -2 -34 -33 vvcurveto
            return
          </CharString>
          <CharString index="119">
            -512 169 1506 -20 return
          </CharString>
          <CharString index="120">
            121 62 -167 176 hhcurveto
            151 137 114 108 29 hvcurveto
            -89 98 rlineto
            -70 -47 -60 -41 -89 hhcurveto
            return
          </CharString>
          <CharString index="121">
            -23 28 39 -12 63 hhcurveto
            247 215 264 287 63 hvcurveto
            190 hlineto
            return
          </CharString>
          <CharString index="122">
            267 hlineto
            99 750 rlineto
            97 54 100 33 88 hhcurveto
            58 37 -16 -10 14 hvcurveto
            return
          </CharString>
          <CharString index="123">
            130 0 193 hstem
            -44 1387 vstem
            -32 hmoveto
            1358 hlineto
            17 27 -569 1493 rlineto
            -54 hlineto
            -764 -1498 rlineto
            261 171 rmoveto
            456 931 338 -931 rlineto
            endchar
          </CharString>
          <CharString index="124">
            hmoveto
            -81 callsubr
            endchar
          </CharString>
          <CharString index="125">
            -20 -48 callgsubr
            return
          </CharString>
          <CharString index="126">
            123 callgsubr
            -162 return
          </CharString>
          <CharString index="127">
            rmoveto
            23 callsubr
          </CharString>
          <CharString index="128">
            138 46 133 111 148 vvcurveto
            151 -152 94 -259 vhcurveto
            -210 -52 -55 -132 hhcurveto
            return
          </CharString>
          <CharString index="129">
            rmoveto
            -137 90 -42 99 171 142 94 63 53 vhcurveto
            return
          </CharString>
          <CharString index="130">
            -79 callgsubr
            endchar
          </CharString>
          <CharString index="131">
            rmoveto
            -609 384 -86 -135 391 -328 -482 -334 49 -149 715 402 rlineto
            return
          </CharString>
          <CharString index="132">
            139 101 callsubr
            -135 -30 rlineto
            495 698 rmoveto
            return
          </CharString>
          <CharString index="133">
            -13 -106 140 -25 return
          </CharString>
          <CharString index="134">
            188 52 -75 -107 -148 -84 -102 -183 -73 -50 29 35 -39 hvcurveto
            -117 150 rlineto
            endchar
          </CharString>
          <CharString index="135">
            5 callsubr
            rlineto
            endchar
          </CharString>
          <CharString index="136">
            9 callgsubr
            hstemhm
            return
          </CharString>
          <CharString index="137">
            -104 47 callsubr
            return
          </CharString>
          <CharString index="138">
            97 1 hvcurveto
            72 2 return
          </CharString>
          <CharString index="139">
            794 -6 callsubr
            143 -143 159 -159 167 -13 -20 362 151 -125 152 hstemhm
            475 64 return
          </CharString>
          <CharString index="140">
            300 138 300 return
          </CharString>
          <CharString index="141">
            -125 1 hvcurveto
            1 return
          </CharString>
          <CharString index="142">
            -62 callsubr
            endchar
          </CharString>
          <CharString index="143">
            459 1 -21 23 -21 1173 -20 28 -20 return
          </CharString>
          <CharString index="144">
            0 98 1293 131 -106 106 return
          </CharString>
          <CharString index="145">
            -6 -59 -2 -54 1 -52 rrcurveto
            return
          </CharString>
          <CharString index="146">
            34 callsubr
            -120 return
          </CharString>
          <CharString index="147">
            286 -189 282 return
          </CharString>
          <CharString index="148">
            9 hmoveto
            595 hlineto
            8 97 -167 30 164 1271 rlineto
            535 hlineto
            -167 -1273 -143 -28 -11 -97 rlineto
            587 hlineto
            10 97 -157 30 return
          </CharString>
          <CharString index="149">
            -80 callsubr
            endchar
          </CharString>
          <CharString index="150">
            563 rlineto
            75 hlineto
            144 59 callgsubr
            return
          </CharString>
          <CharString index="151">
            -4 126 rmoveto
            -130 -29 -8 -97 rlineto
            520 hlineto
            7 97 -175 30 133 298 rlineto
            523 hlineto
            44 -299 -156 -29 -5 -97 rlineto
            return
          </CharString>
          <CharString index="152">
            111 115 -26 callgsubr
            return
          </CharString>
          <CharString index="153">
            hhcurveto
            -434 -235 -404 -353 -238 return
          </CharString>
          <CharString index="154">
            -25 53 callsubr
            return
          </CharString>
          <CharString index="155">
            21 -21 60 109 530 107 -67 109 530 108 44 -20 hstemhm
            178 204 306 213 124 205 305 214 return
          </CharString>
          <CharString index="156">
            75 callsubr
            120 hhcurveto
            return
          </CharString>
          <CharString index="157">
            -21 518 130 487 -20 31 -20 37 -20 hstemhm
            return
          </CharString>
          <CharString index="158">
            -66 0 135 1015 -20 263 128 -85 86 return
          </CharString>
          <CharString index="159">
            rmoveto
            38 45 46 40 63 -1 rrcurveto
            return
          </CharString>
          <CharString index="160">
            126 930 133 return
          </CharString>
          <CharString index="161">
            -119 -65 161 -170 hhcurveto
            -151 -129 -114 -96 -32 hvcurveto
            return
          </CharString>
          <CharString index="162">
            -17 118 -101 97 662 137 495 131 -106 106 -101 101 return
          </CharString>
          <CharString index="163">
            297 -18 27 -398 rlineto
            162 hlineto
            59 532 rlineto
            -979 hlineto
            return
          </CharString>
          <CharString index="164">
            166 78 vvcurveto
            225 -101 77 -147 return
          </CharString>
          <CharString index="165">
            -87 -14 -169 -6 -106 rrcurveto
            return
          </CharString>
          <CharString index="166">
            139 244 rmoveto
            -200 1 139 -64 135 hhcurveto
            181 110 104 88 69 hvcurveto
            -125 5 81 -67 159 hhcurveto
            return
          </CharString>
          <CharString index="167">
            134 1139 rlineto
            return
          </CharString>
          <CharString index="168">
            -248 -16 119 432 116 158 297 -63 118 return
          </CharString>
          <CharString index="169">
            646 0 97 345 138 817 125 -111 111 return
          </CharString>
          <CharString index="170">
            355 -23 122 -118 -29 callsubr
            635 166 357 27 callgsubr
            hstemhm
            121 258 return
          </CharString>
          <CharString index="171">
            -13 -105 163 -26 -163 -32 callgsubr
            -154 -30 rlineto
            endchar
          </CharString>
          <CharString index="172">
            0 -13 callgsubr
            return
          </CharString>
          <CharString index="173">
            289 48 110 57 91 hhcurveto
            142 83 -107 -23 10 hvcurveto
            113 201 rlineto
            59 -67 -79 21 -146 hhcurveto
            return
          </CharString>
          <CharString index="174">
            rmoveto
            544 -31 callsubr
            return
          </CharString>
          <CharString index="175">
            114 hstem
            76 1358 vstem
            214 hmoveto
            return
          </CharString>
          <CharString index="176">
            -164 85 callsubr
            return
          </CharString>
          <CharString index="177">
            -32 callgsubr
            -142 return
          </CharString>
          <CharString index="178">
            rmoveto
            -36 60 125 -51 190 hhcurveto
            308 262 136 257 139 -98 88 -170 7 hvcurveto
            return
          </CharString>
          <CharString index="179">
            12 92 -74 36 -88 21 -148 334 -91 116 rlinecurve
            return
          </CharString>
          <CharString index="180">
            165 615 -20 27 -20 37 -20 hstemhm
            133 264 return
          </CharString>
          <CharString index="181">
            -20 -114 -32 -84 -32 -33 rlinecurve
            -132 -117 -83 -70 -5 hvcurveto
            -67 -6 47 -23 52 hhcurveto
            endchar
          </CharString>
          <CharString index="182">
            -35 -17 -52 -1 -37 rrcurveto
            -86 -1 57 -71 return
          </CharString>
          <CharString index="183">
            -133 -67 -16 -109 hhcurveto
            -293 hlineto
            return
          </CharString>
          <CharString index="184">
            164 105 84 82 70 hvcurveto
            4 -6 rlineto
            return
          </CharString>
          <CharString index="185">
            -3 -20 -4 -36 -21 vvcurveto
            return
          </CharString>
          <CharString index="186">
            hvcurveto
            26 243 rlineto
            -224 hlineto
            -27 -251 rlineto
            -177 -20 -59 -126 -139 hhcurveto
            -128 return
          </CharString>
          <CharString index="187">
            49 callsubr
            76 callgsubr
            return
          </CharString>
          <CharString index="188">
            -75 35 -20 -53 vvcurveto
            -61 -71 108 callgsubr
            return
          </CharString>
          <CharString index="189">
            -53 24 -22 callgsubr
            -79 -476 rlineto
            return
          </CharString>
          <CharString index="190">
            -39 -23 221 1218 106 return
          </CharString>
          <CharString index="191">
            -20 146 900 137 return
          </CharString>
          <CharString index="192">
            70 callsubr
            -30 rlineto
            return
          </CharString>
          <CharString index="193">
            67 callsubr
            endchar
          </CharString>
          <CharString index="194">
            48 -23 125 547 126 650 113 return
          </CharString>
          <CharString index="195">
            -15 -111 292 -24 rlineto
            -234 -807 rmoveto
            return
          </CharString>
          <CharString index="196">
            rmoveto
            172 hlineto
            156 592 rlineto
            -244 hlineto
            return
          </CharString>
          <CharString index="197">
            hstemhm
            122 41 callgsubr
            return
          </CharString>
          <CharString index="198">
            168 -147 -21 1024 151 return
          </CharString>
          <CharString index="199">
            hstemhm
            152 280 return
          </CharString>
          <CharString index="200">
            424 819 98 -2 -102 -817 rlineto
            endchar
          </CharString>
          <CharString index="201">
            6 -19 callsubr
            return
          </CharString>
          <CharString index="202">
            124 hstem
            89 302 683 305 vstem
            return
          </CharString>
          <CharString index="203">
            -164 -1280 -160 -29 -9 -98 rlineto
            return
          </CharString>
          <CharString index="204">
            -38 callgsubr
            hstem
            return
          </CharString>
          <CharString index="205">
            hstemhm
            70 284 return
          </CharString>
          <CharString index="206">
            hlineto
            18 180 rlineto
            -238 hlineto
            -115 -10 29 164 26 230 rlineto
            return
          </CharString>
          <CharString index="207">
            181 25 13 120 callgsubr
            return
          </CharString>
          <CharString index="208">
            -25 -163 -32 callgsubr
            return
          </CharString>
          <CharString index="209">
            675 36 callgsubr
            return
          </CharString>
          <CharString index="210">
            -355 -72 175 -155 243 hhcurveto
            return
          </CharString>
          <CharString index="211">
            -432 21 -21 1146 -20 37 -20 return
          </CharString>
          <CharString index="212">
            -11 -106 165 -25 return
          </CharString>
          <CharString index="213">
            106 rlineto
            -480 hlineto
            return
          </CharString>
          <CharString index="214">
            -169 -6 -106 rrcurveto
            152 hlineto
            27 105 49 140 31 193 return
          </CharString>
          <CharString index="215">
            -596 -60 -158 -451 -112 hhcurveto
            -81 -87 39 16 -12 hvcurveto
            return
          </CharString>
          <CharString index="216">
            -13 -106 162 -29 -162 -1260 -143 -30 rlineto
            endchar
          </CharString>
          <CharString index="217">
            hintmask 00000000
            hintmask 10110000
            return
          </CharString>
          <CharString index="218">
            164 0 -20 hstemhm
            274 280 296 254 hintmask 00000000
            return
          </CharString>
          <CharString index="219">
            -423 -186 1966 hstem
            349 195 vstem
            349 return
          </CharString>
          <CharString index="220">
            29 -71 rlineto
            35 44 19 3 15 hhcurveto
            20 11 -15 -41 11 hvcurveto
            return
          </CharString>
          <CharString index="221">
            379 hmoveto
            193 hlineto
            947 1530 rlineto
            -193 hlineto
            return
          </CharString>
          <CharString index="222">
            -16 123 -107 97 1294 9 callgsubr
            return
          </CharString>
          <CharString index="223">
            -33 -1 -106 1 -41 3 rrcurveto
            return
          </CharString>
          <CharString index="224">
            hintmask 00000000
            hintmask 11010000
            return
          </CharString>
          <CharString index="225">
            80 -47 47 48 vvcurveto
            return
          </CharString>
          <CharString index="226">
            hstemhm
            39 1394 return
          </CharString>
          <CharString index="227">
            138 244 -57 callsubr
            return
          </CharString>
          <CharString index="228">
            27 callgsubr
            hstemhm
            139 273 354 263 return
          </CharString>
          <CharString index="229">
            -96 -13 74 -53 115 hhcurveto
            138 101 106 29 18 hvcurveto
            return
          </CharString>
          <CharString index="230">
            165 -21 hstemhm
            return
          </CharString>
          <CharString index="231">
            hvcurveto
            -29 64 rlineto
            return
          </CharString>
          <CharString index="232">
            149 -20 121 611 108 598 124 return
          </CharString>
          <CharString index="233">
            113 650 126 269 -20 298 125 return
          </CharString>
          <CharString index="234">
            322 180 340 180 hstem
            78 907 vstem
            return
          </CharString>
          <CharString index="235">
            29 callsubr
            1139 300 return
          </CharString>
          <CharString index="236">
            rmoveto
            758 hlineto
            18 180 rlineto
            -758 hlineto
            endchar
          </CharString>
          <CharString index="237">
            136 572 106 return
          </CharString>
          <CharString index="238">
            123 603 106 return
          </CharString>
          <CharString index="239">
            hstemhm
            89 302 return
          </CharString>
          <CharString index="240">
            hlineto
            -12 -106 157 -25 -165 -1273 rlineto
            return
          </CharString>
          <CharString index="241">
            78 callsubr
            endchar
          </CharString>
          <CharString index="242">
            hstemhm
            112 1251 return
          </CharString>
          <CharString index="243">
            -52 -17 149 callsubr
            return
          </CharString>
          <CharString index="244">
            -44 -56 -40 -24 -47 hhcurveto
            return
          </CharString>
          <CharString index="245">
            100 1308 114 return
          </CharString>
          <CharString index="246">
            120 106 vvcurveto
            return
          </CharString>
          <CharString index="247">
            hstemhm
            65 293 return
          </CharString>
          <CharString index="248">
            hhcurveto
            -374 -245 -341 -386 10 hvcurveto
            return
          </CharString>
          <CharString index="249">
            rmoveto
            815 hlineto
            21 180 rlineto
            -815 hlineto
            return
          </CharString>
          <CharString index="250">
            -38 callgsubr
            106 callgsubr
            return
          </CharString>
          <CharString index="251">
            rlineto
            hintmask 10110000
            145 25 9 return
          </CharString>
          <CharString index="252">
            136 746 142 hstemhm
            return
          </CharString>
          <CharString index="253">
            rmoveto
            70 47 71 36 78 hhcurveto
            return
          </CharString>
          <CharString index="254">
            hstemhm
            128 264 return
          </CharString>
          <CharString index="255">
            hstemhm
            123 276 return
          </CharString>
          <CharString index="256">
            -89 104 -60 rlineto
            return
          </CharString>
          <CharString index="257">
            -137 -72 -16 -127 hhcurveto
            -289 hlineto
            return
          </CharString>
          <CharString index="258">
            -50 24 -22 callgsubr
            rlineto
            return
          </CharString>
          <CharString index="259">
            -55 4 callgsubr
            -13 -20 return
          </CharString>
          <CharString index="260">
            hmoveto
            272 hlineto
            return
          </CharString>
          <CharString index="261">
            -452 165 return
          </CharString>
        <CharString name=".notdef">
          595 0 219 hstem
          228 229 960 227 vstem
          228 hmoveto
          1416 1416 -1416 hlineto
          230 -1053 rmoveto
          358 342 -359 363 123 125 357 -368 352 366 128 -124 -363 -358 363 -368 -122 -122 -362 368 -347 -368 rlineto
          endchar
        </CharString>
        <CharString name="A">
          -24 callsubr
          hstem
          -142 1507 vstem
          -4 -102 callsubr
          endchar
        </CharString>
        <CharString name="AE">
          62 callsubr
          hstemhm
          -187 2059 117 callgsubr
          -20 127 -59 callgsubr
          hintmask 11011000
          88 callsubr
          hintmask 11101000
          93 callsubr
        </CharString>
        <CharString name="AEacute">
          62 callsubr
          123 callsubr
          -187 2059 -719 436 hintmask 00001010
          1246 -60 callgsubr
          hintmask 00000000
          -1173 -1539 -59 callgsubr
          hintmask 11100100
          88 callsubr
          hintmask 11010100
          93 callsubr
        </CharString>
        <CharString name="Aacute">
          -24 callsubr
          185 -21 70 callgsubr
          -631 436 hintmask 11101000
          -4 -102 callsubr
          hintmask 00010100
          -18 1026 -89 callgsubr
          endchar
        </CharString>
        <CharString name="Abreve">
          -24 callsubr
          129 186 70 callgsubr
          -833 156 hintmask 11101000
          -4 -102 callsubr
          hintmask 00010100
          -9 1068 21 callgsubr
        </CharString>
        <CharString name="Acircumflex">
          -24 callsubr
          187 -21 70 callgsubr
          -889 728 hintmask 11101000
          -4 -102 callsubr
          hintmask 00010100
          -282 1048 -88 callgsubr
        </CharString>
        <CharString name="Adieresis">
          -24 callsubr
          188 297 70 callgsubr
          -878 -15 callsubr
          hintmask 11101000
          -4 -102 callsubr
          hintmask 00010110
          205 1127 -92 callsubr
        </CharString>
        <CharString name="Agrave">
          -24 callsubr
          185 -21 70 callgsubr
          -878 433 hintmask 11101000
          -4 -102 callsubr
          hintmask 00010100
          -19 1026 35 callsubr
        </CharString>
        <CharString name="Amacron">
          -24 callsubr
          215 182 70 callgsubr
          -809 564 hintmask 11101000
          -4 -102 callsubr
          hintmask 00010100
          -289 1154 86 callsubr
        </CharString>
        <CharString name="Aogonek">
          70 154 callsubr
          287 97 328 138 959 -20 hstemhm
          674 295 -243 230 hintmask 00000000
          hintmask 11110100
          44 callsubr
          227 54 callgsubr
          hintmask 11111000
          -44 -56 -41 -24 -46 hhcurveto
          -32 88 callgsubr
          210 hlineto
          7 97 -159 32 rlineto
          hintmask 11110100
          -250 1393 rlineto
          hintmask 11111000
          -282 hlineto
          -270 -959 rmoveto
          342 766 10 -159 89 -607 rlineto
          endchar
        </CharString>
        <CharString name="Aring">
          70 0 97 328 138 1330 115 hstemhm
          503 171 77 423 -169 356 hintmask 00000000
          hintmask 11111000
          44 callsubr
          hintmask 11110100
          609 hlineto
          7 97 -159 32 -249 1387 rlineto
          hintmask 11111000
          120 37 98 88 146 vvcurveto
          138 -121 83 -175 -158 -218 -78 -205 -107 62 -72 105 -33 vhcurveto
          hintmask 11110100
          154 96 rmoveto
          -81 -69 55 78 107 98 44 86 78 69 -52 -74 -123 -93 -35 -88 hvcurveto
          -420 -1046 rmoveto
          342 766 10 -159 89 -607 rlineto
          endchar
        </CharString>
        <CharString name="Atilde">
          -24 callsubr
          132 190 -44 190 70 callgsubr
          -887 753 hintmask 11100100
          -4 -102 callsubr
          hintmask 00000000
          -299 1133 52 callsubr
          hintmask 00001010
          -52 callgsubr
          hintmask 00010010
          -10 callgsubr
          endchar
        </CharString>
        <CharString name="B">
          -72 callsubr
        </CharString>
        <CharString name="C">
          90 callgsubr
          hstem
          75 310 vstem
          75 633 -98 callgsubr
          endchar
        </CharString>
        <CharString name="CR">
          -1277 endchar
        </CharString>
        <CharString name="Cacute">
          90 callgsubr
          147 -21 hstemhm
          75 310 394 436 hintmask 11010000
          75 633 -98 callgsubr
          hintmask 00101000
          797 956 -89 callgsubr
          endchar
        </CharString>
        <CharString name="Ccaron">
          90 callgsubr
          70 398 hstemhm
          75 310 184 727 hintmask 11010000
          75 633 -98 callgsubr
          hintmask 00101000
          709 977 0 callsubr
        </CharString>
        <CharString name="Ccedilla">
          -11 -473 165 314 -21 26 -21 1426 124 hstemhm
          75 310 241 165 hintmask 00000000
          hintmask 10111100
          359 -293 rmoveto
          -26 -152 rlineto
          -16 22 92 -12 53 hhcurveto
          191 100 104 189 56 -10 68 -15 46 hvcurveto
          190 19 112 60 61 38 42 305 rcurveline
          -166 hlineto
          -12 -43 -42 -133 -21 -23 rrcurveto
          -74 -60 -113 -13 -66 hhcurveto
          -213 -85 223 304 -8 hvcurveto
          318 -7 129 445 347 hhcurveto
          61 47 -14 -18 38 hvcurveto
          32 -287 rlineto
          193 hlineto
          64 386 -36 10 rlineto
          17 -68 -85 30 -204 hhcurveto
          -476 -350 -347 -560 5 hvcurveto
          hintmask 11011100
          2 -327 148 -310 397 -11 3 -25 2 -31 -1 -34 rrcurveto
          -138 -4 -72 -65 -107 hhcurveto
          hintmask 10111100
          -31 -36 6 9 -17 hvcurveto
          endchar
        </CharString>
        <CharString name="Ccircumflex">
          90 callgsubr
          149 -21 hstemhm
          75 310 136 728 hintmask 11010000
          75 633 -98 callgsubr
          hintmask 00101000
          533 978 -88 callgsubr
        </CharString>
        <CharString name="Cdotaccent">
          90 callgsubr
          128 -21 hstemhm
          75 310 339 335 hintmask 00101000
          871 1647 -93 callsubr
          hintmask 11010000
          -796 -1014 -98 callgsubr
          endchar
        </CharString>
        <CharString name="D">
          197 115 callsubr
          hstemhm
          1139 300 hintmask 00000000
          hintmask 10010100
          -7 hmoveto
          hintmask 01010100
          300 hlineto
          60 101 -5 -4 48 hvcurveto
          hintmask 10010100
          -71 callgsubr
          hintmask 10001100
          -10 callsubr
          hintmask 10010100
          -11 -106 rlineto
          hintmask 01100100
          7 callsubr
          hintmask 10010100
          438 37 rmoveto
          163 1260 42 callsubr
        </CharString>
        <CharString name="Dcaron">
          200 115 callsubr
          108 398 hstemhm
          551 727 -143 300 hintmask 00000110
          766 1610 -68 callgsubr
          hintmask 00000000
          -562 -1950 rmoveto
          hintmask 10010001
          300 hlineto
          60 101 -5 -4 48 hvcurveto
          hintmask 01010001
          -71 callgsubr
          hintmask 10010001
          -10 callsubr
          hintmask 10001001
          -11 -106 rlineto
          hintmask 10010001
          7 callsubr
          hintmask 01100001
          438 37 rmoveto
          163 1260 42 callsubr
        </CharString>
        <CharString name="Dcroat">
          200 -66 callgsubr
        </CharString>
        <CharString name="Delta">
          16 callsubr
        </CharString>
        <CharString name="Deltagreek">
          16 callsubr
        </CharString>
        <CharString name="E">
          -5 -28 callsubr
        </CharString>
        <CharString name="Eacute">
          3 callgsubr
          165 135 callgsubr
          -520 436 hintmask 00010100
          800 -60 callgsubr
          hintmask 00000000
          -715 -1666 -101 callgsubr
        </CharString>
        <CharString name="Ebreve">
          3 callgsubr
          109 186 74 callgsubr
          -722 156 hintmask 00010100
          809 1631 -80 callgsubr
          hintmask 00000000
          -817 -1631 -101 callgsubr
        </CharString>
        <CharString name="Ecaron">
          3 callgsubr
          88 398 74 callgsubr
          -730 727 hintmask 00010100
          712 1610 -68 callgsubr
          hintmask 00000000
          -505 -1950 -101 callgsubr
        </CharString>
        <CharString name="Ecircumflex">
          3 callgsubr
          -106 106 167 135 callgsubr
          -778 728 hintmask 00000000
          hintmask 10100100
          -8 hmoveto
          1154 hlineto
          79 393 -165 22 rlineto
          hintmask 01100100
          -118 -258 -502 -30 80 589 444 -23 26 198 -454 -29 73 545 384 -20 40 -209 rlineto
          171 hlineto
          23 344 rlineto
          -1034 hlineto
          hintmask 10010100
          -11 19 callsubr
          -32 callgsubr
          -155 -30 rlineto
          hintmask 00001010
          532 1514 -88 callgsubr
        </CharString>
        <CharString name="Edieresis">
          3 callgsubr
          168 297 74 callgsubr
          -767 -15 callsubr
          hintmask 00010110
          1023 1690 -105 callgsubr
          hintmask 00000000
          -594 -1690 -101 callgsubr
        </CharString>
        <CharString name="Edotaccent">
          3 callgsubr
          146 135 callgsubr
          -575 335 hintmask 00010100
          799 1647 -93 callsubr
          hintmask 00000000
          -807 -1647 -101 callgsubr
        </CharString>
        <CharString name="Egrave">
          3 callgsubr
          165 135 callgsubr
          -767 433 hintmask 00010100
          799 1589 -62 callsubr
          hintmask 00000000
          -807 -1589 -101 callgsubr
        </CharString>
        <CharString name="Emacron">
          3 callgsubr
          195 182 74 callgsubr
          -698 564 hintmask 00010100
          529 23 callgsubr
          hintmask 00000000
          -557 -1899 -101 callgsubr
        </CharString>
        <CharString name="Eng">
          260 0 97 1299 130 -106 106 hstemhm
          2 1600 110 callsubr
          2 hmoveto
          514 hlineto
          9 98 -174 29 121 1150 68 -223 472 -1054 -3 -173 -164 -119 -133 -35 rlinecurve
          43 -105 256 26 210 167 35 239 rlinecurve
          203 1396 133 24 10 106 rlineto
          -477 hlineto
          -12 -106 rlineto
          hintmask 11010000
          158 -24 -128 -1090 -67 225 rlineto
          hintmask 10110000
          -428 995 rlineto
          -462 hlineto
          -17 -106 rlineto
          hintmask 11010000
          162 -24 -178 -1270 -143 -29 rlineto
          endchar
        </CharString>
        <CharString name="Eogonek">
          6 154 callsubr
          287 -26 callsubr
          -106 106 hstemhm
          630 597 hintmask 00000000
          hintmask 11010100
          -8 hmoveto
          888 hlineto
          -67 -34 -72 -42 -68 -95 60 callgsubr
          -31 88 callgsubr
          94 hlineto
          79 393 -165 22 rlineto
          hintmask 10110100
          -118 -258 -502 -30 80 589 444 -23 26 198 -454 -29 73 545 384 -20 40 -209 rlineto
          171 hlineto
          23 344 rlineto
          -1034 hlineto
          hintmask 11001100
          -11 19 callsubr
          -32 callgsubr
          -155 -30 rlineto
          endchar
        </CharString>
        <CharString name="Eth">
          194 -66 callgsubr
        </CharString>
        <CharString name="Euro">
          111 -16 143 426 142 205 141 371 130 hstemhm
          33 1334 -1137 280 hintmask 00000000
          hintmask 11111000
          33 553 rmoveto
          200 hlineto
          -313 23 141 -256 324 hhcurveto
          139 89 35 25 78 hvcurveto
          49 13 57 10 39 3 48 310 rcurveline
          -131 1 -71 -165 rlineto
          -57 -44 -83 -32 -118 hhcurveto
          -163 -89 154 272 -11 hvcurveto
          456 hlineto
          13 142 rlineto
          hintmask 11110100
          -469 hlineto
          3 72 7 69 10 64 rrcurveto
          502 hlineto
          19 141 rlineto
          -491 hlineto
          232 64 121 139 170 hhcurveto
          131 69 -32 -44 46 hvcurveto
          23 -161 rlineto
          122 hlineto
          61 293 -17 4 -48 9 -24 7 rlinecurve
          23 -72 -86 31 -156 hhcurveto
          -289 -267 -170 -331 -116 hvcurveto
          -173 hlineto
          -19 -141 rlineto
          153 hlineto
          -12 -64 -8 -68 -3 -73 rrcurveto
          -182 hlineto
          endchar
        </CharString>
        <CharString name="F">
          -80 0 98 1297 127 -106 106 hstemhm
          6 1250 117 callsubr
          6 hmoveto
          703 hlineto
          8 98 -274 30 77 582 8 callsubr
          hintmask 10110000
          -13 19 callsubr
          -32 callgsubr
          -143 -29 rlineto
          endchar
        </CharString>
        <CharString name="G">
          106 -16 3 callsubr
          hstem
          78 301 vstem
          621 -16 -73 callgsubr
        </CharString>
        <CharString name="Gbreve">
          114 -16 3 callsubr
          91 186 hstemhm
          78 301 200 156 hintmask 00010100
          883 1631 -80 callgsubr
          hintmask 11101000
          -262 -1647 -73 callgsubr
        </CharString>
        <CharString name="Gcaron">
          106 -16 3 callsubr
          70 398 hstemhm
          78 301 192 727 hintmask 11101000
          621 -16 -105 callsubr
          hintmask 00010100
          165 1626 0 callsubr
        </CharString>
        <CharString name="Gcircumflex">
          114 -16 3 callsubr
          149 -21 hstemhm
          78 301 144 728 hintmask 11101000
          621 -16 -105 callsubr
          hintmask 00010100
          -11 1627 -88 callgsubr
        </CharString>
        <CharString name="Gcommaaccent">
          114 -482 -21 487 3 callsubr
          hstemhm
          78 301 226 223 hintmask 10000100
          542 -145 -96 callsubr
          hintmask 01111000
          -64 27 -73 callgsubr
        </CharString>
        <CharString name="Gdotaccent">
          114 -16 3 callsubr
          128 -21 hstemhm
          78 301 347 335 hintmask 00010100
          873 1647 -93 callsubr
          hintmask 11101000
          -252 -1663 -73 callgsubr
        </CharString>
        <CharString name="Gtilde">
          106 -16 3 callsubr
          94 44 callgsubr
          78 301 146 753 hintmask 11100100
          621 -16 -105 callsubr
          hintmask 00000000
          -28 1712 52 callsubr
          hintmask 00001010
          -52 callgsubr
          hintmask 00010010
          -10 callgsubr
          endchar
        </CharString>
        <CharString name="H">
          325 0 97 611 130 callsubr
          hstem
          9 1640 vstem
          -64 callsubr
          endchar
        </CharString>
        <CharString name="Hbar">
          325 0 97 526 135 228 136 298 106 hstem
          5 1637 vstem
          5 hmoveto
          596 hlineto
          8 98 -167 29 63 496 rlineto
          597 hlineto
          -62 -495 -179 -30 -12 -98 rlineto
          619 hlineto
          10 97 -154 31 107 858 rlineto
          192 hlineto
          14 136 rlineto
          -189 hlineto
          35 274 147 24 12 106 rlineto
          -596 hlineto
          -12 -106 166 -24 -35 -274 rlineto
          -597 hlineto
          35 274 168 24 11 106 rlineto
          -590 149 callgsubr
          -24 -35 -274 rlineto
          -185 hlineto
          -14 -136 rlineto
          182 hlineto
          -108 -859 -142 -30 rlineto
          506 661 rmoveto
          29 228 rlineto
          597 hlineto
          -29 -228 rlineto
          endchar
        </CharString>
        <CharString name="Hcircumflex">
          325 0 97 611 130 callsubr
          167 -21 hstemhm
          9 1640 -1057 728 hintmask 11101000
          -64 callsubr
          hintmask 00010100
          660 1514 -88 callgsubr
        </CharString>
        <CharString name="I">
          97 callsubr
          3 783 vstem
          3 hmoveto
          -101 callsubr
          endchar
        </CharString>
        <CharString name="I.uc">
          -38 callgsubr
          132 callgsubr
          3 783 -412 335 hintmask 11010000
          3 hmoveto
          -101 callsubr
          hintmask 00101000
          507 1550 -33 callgsubr
        </CharString>
        <CharString name="IJ">
          204 -38 callgsubr
          hstemhm
          3 783 -217 948 hintmask 11100000
          3 hmoveto
          -101 callsubr
          hintmask 01010000
          891 -11 -84 callsubr
          endchar
        </CharString>
        <CharString name="IJ_acutecomb">
          196 92 callgsubr
          25 -21 hstemhm
          569 211 393 436 hintmask 11101000
          526 -60 callgsubr
          136 -1912 rmoveto
          44 -99 245 37 243 132 84 251 rlinecurve
          32 95 70 613 70 609 149 24 rcurveline
          11 106 rlineto
          -569 hlineto
          -15 -106 145 -25 -50 -435 -44 -480 -79 -390 rlinecurve
          -27 -131 -109 -141 -200 -60 rrcurveto
          -566 246 rmoveto
          -101 callsubr
          hintmask 00010100
          1252 1496 -89 callgsubr
          endchar
        </CharString>
        <CharString name="Iacute">
          103 callgsubr
          3 783 -357 436 hintmask 11010000
          3 hmoveto
          -101 callsubr
          hintmask 00101000
          508 1492 -89 callgsubr
          endchar
        </CharString>
        <CharString name="Ibreve">
          -38 callgsubr
          109 186 hstemhm
          3 783 -559 156 hintmask 11010000
          3 hmoveto
          -101 callsubr
          hintmask 00101000
          517 1534 21 callgsubr
        </CharString>
        <CharString name="Icircumflex">
          -38 callgsubr
          167 -21 hstemhm
          3 783 -615 728 hintmask 11010000
          3 hmoveto
          -101 callsubr
          hintmask 00101000
          244 1514 -88 callgsubr
        </CharString>
        <CharString name="Idieresis">
          122 callgsubr
          -604 -15 callsubr
          hintmask 11010000
          3 hmoveto
          -101 callsubr
          hintmask 00101100
          731 1593 -92 callsubr
        </CharString>
        <CharString name="Idotaccent">
          -38 callgsubr
          132 callgsubr
          3 783 -412 335 hintmask 11010000
          3 hmoveto
          -101 callsubr
          hintmask 00101000
          507 1550 -33 callgsubr
        </CharString>
        <CharString name="Igrave">
          103 callgsubr
          3 783 -604 433 hintmask 11010000
          3 hmoveto
          -101 callsubr
          hintmask 00101000
          507 1492 35 callsubr
        </CharString>
        <CharString name="Imacron">
          -38 callgsubr
          195 182 hstemhm
          3 783 -535 564 hintmask 11010000
          3 hmoveto
          -101 callsubr
          hintmask 00101000
          237 1620 86 callsubr
        </CharString>
        <CharString name="Iogonek">
          154 callsubr
          287 -24 callgsubr
          hstem
          192 28 204 356 vstem
          3 hmoveto
          224 54 callgsubr
          -44 -56 -41 -24 -46 hhcurveto
          -32 88 callgsubr
          208 hlineto
          8 98 -167 29 163 1264 164 -48 callsubr
          -12 -106 -51 callgsubr
          -149 -30 rlineto
          endchar
        </CharString>
        <CharString name="Itilde">
          -38 callgsubr
          112 44 callgsubr
          3 783 -613 753 hintmask 11001000
          3 hmoveto
          -101 callsubr
          hintmask 00000000
          227 1599 52 callsubr
          hintmask 00010100
          -52 callgsubr
          hintmask 00100100
          -10 callgsubr
          endchar
        </CharString>
        <CharString name="J">
          -544 1416 106 hstem
          -171 948 vstem
          165 86 -84 callsubr
          endchar
        </CharString>
        <CharString name="Jcircumflex">
          -550 1416 106 167 -21 hstemhm
          -171 948 -621 728 hintmask 10100000
          165 86 -84 callsubr
          hintmask 01010000
          78 1525 -88 callgsubr
        </CharString>
        <CharString name="K">
          154 0 97 1294 131 -106 106 hstemhm
          1 1483 110 callsubr
          1 hmoveto
          -12 callgsubr
          hintmask 11010000
          127 -26 -618 -686 rlineto
          hintmask 10110000
          113 callgsubr
          hintmask 11010000
          139 101 callsubr
          -147 -30 rlineto
          endchar
        </CharString>
        <CharString name="Kcommaaccent">
          150 -480 -21 501 97 1294 131 -106 106 hstemhm
          -3 1483 -837 223 hintmask 10000100
          580 -143 -96 callsubr
          hintmask 00000000
          -726 41 rmoveto
          -12 callgsubr
          hintmask 01011000
          127 -26 -618 -686 rlineto
          hintmask 01101000
          113 callgsubr
          hintmask 01011000
          139 101 callsubr
          -147 -30 rlineto
          endchar
        </CharString>
        <CharString name="L">
          -48 0 137 callgsubr
          hstem
          6 1174 vstem
          6 hmoveto
          23 callsubr
        </CharString>
        <CharString name="Lacute">
          -48 0 137 callgsubr
          167 -21 131 callgsubr
          -725 436 hintmask 00101000
          548 1591 -89 callgsubr
          hintmask 11010000
          -449 -1668 20 callsubr
        </CharString>
        <CharString name="Lcaron">
          -48 0 131 878 641 -234 106 131 callgsubr
          -202 211 hintmask 10110000
          6 hmoveto
          -79 callgsubr
          hintmask 01001000
          1021 911 -58 callsubr
        </CharString>
        <CharString name="Lcommaaccent">
          -48 -480 -21 501 137 callgsubr
          131 callgsubr
          -707 223 hintmask 10001000
          410 -143 -96 callsubr
          hintmask 01110000
          -547 41 20 callsubr
        </CharString>
        <CharString name="Ldot">
          -48 0 131 626 -21 680 106 131 callgsubr
          -260 313 hintmask 10110000
          6 hmoveto
          -79 callgsubr
          hintmask 01001000
          903 783 -64 callgsubr
          endchar
        </CharString>
        <CharString name="Lslash">
          -48 2 137 callgsubr
          hstem
          6 1174 vstem
          6 2 rmoveto
          1074 hlineto
          100 513 -152 23 -178 -397 -407 -16 69 542 401 163 -35 127 -347 -145 75 581 185 -14 callgsubr
          -608 20 callgsubr
          -91 -706 -206 -86 36 -118 151 61 -53 -415 -142 -29 rlineto
          endchar
        </CharString>
        <CharString name="M">
          678 -56 callsubr
        </CharString>
        <CharString name="N">
          261 97 callsubr
          155 callgsubr
          vstem
          -53 callgsubr
          endchar
        </CharString>
        <CharString name="NULL">
          -1277 endchar
        </CharString>
        <CharString name="Nacute">
          261 103 callgsubr
          155 callgsubr
          -796 436 hintmask 00101000
          906 -60 callgsubr
          hintmask 11010000
          -809 -1666 rmoveto
          -97 callsubr
          endchar
        </CharString>
        <CharString name="Ncaron">
          261 -38 callgsubr
          88 398 hstemhm
          155 callgsubr
          -1006 727 hintmask 00101000
          818 1610 -68 callgsubr
          hintmask 11010000
          -599 -1950 rmoveto
          -97 callsubr
          endchar
        </CharString>
        <CharString name="Ncommaaccent">
          261 -482 -21 503 -24 callgsubr
          hstemhm
          155 callgsubr
          -989 223 hintmask 10001000
          557 -145 -96 callsubr
          hintmask 01110000
          -696 43 rmoveto
          -97 callsubr
          endchar
        </CharString>
        <CharString name="Ntilde">
          261 -38 callgsubr
          112 44 callgsubr
          155 callgsubr
          -1052 753 hintmask 00000000
          hintmask 00010100
          625 1696 52 callsubr
          hintmask 00100100
          -52 callgsubr
          hintmask 00010100
          -10 callgsubr
          hintmask 11001000
          -553 -1801 rmoveto
          -97 callsubr
          endchar
        </CharString>
        <CharString name="O">
          -9 callgsubr
          hstem
          87 302 683 305 vstem
          631 -20 -100 callsubr
        </CharString>
        <CharString name="OE">
          929 -20 121 -101 127 1270 125 -106 125 hstemhm
          79 298 hintmask 00000000
          hintmask 10011000
          79 630 rmoveto
          -385 3 186 -265 368 hhcurveto
          218 162 86 137 114 hvcurveto
          hintmask 01101000
          -25 -203 rlineto
          986 hlineto
          68 384 -165 21 -108 -248 -485 -30 77 589 418 -27 28 204 -431 -35 74 549 365 -20 40 -200 rlineto
          171 hlineto
          23 335 rlineto
          -873 hlineto
          -30 -239 rlineto
          hintmask 10011000
          155 -72 -134 103 -221 hhcurveto
          -482 -279 -417 -494 4 hvcurveto
          586 -529 rmoveto
          -228 1 -57 264 -3 310 rrcurveto
          392 -4 172 348 261 hhcurveto
          193 87 -184 -358 2 hvcurveto
          3 -435 -157 -339 -269 1 rrcurveto
          endchar
        </CharString>
        <CharString name="Oacute">
          -9 callgsubr
          145 -21 132 callsubr
          362 436 -115 305 hintmask 00101000
          846 -60 callgsubr
          hintmask 11010100
          -120 -1686 -100 callsubr
        </CharString>
        <CharString name="Obreve">
          -9 callgsubr
          89 186 132 callsubr
          160 156 367 305 hintmask 00101000
          855 1631 -80 callgsubr
          hintmask 11010100
          -222 -1651 -100 callsubr
        </CharString>
        <CharString name="Ocircumflex">
          -9 callgsubr
          147 -21 132 callsubr
          104 728 -149 305 hintmask 11010100
          -65 callsubr
          hintmask 00101000
          -80 1510 -88 callgsubr
        </CharString>
        <CharString name="Odieresis">
          -9 callgsubr
          148 297 132 callsubr
          115 -15 callsubr
          -160 305 hintmask 00101100
          1069 1690 -105 callgsubr
          hintmask 11010010
          1 -1710 -100 callsubr
        </CharString>
        <CharString name="Ograve">
          -9 callgsubr
          145 -21 132 callsubr
          115 433 135 305 hintmask 00101000
          845 1589 -62 callsubr
          hintmask 11010100
          -212 -1609 -100 callsubr
        </CharString>
        <CharString name="Ohungarumlaut">
          -9 callgsubr
          139 -21 132 callsubr
          127 894 -338 305 hintmask 11010100
          -65 callsubr
          hintmask 00101000
          418 1488 -45 callgsubr
        </CharString>
        <CharString name="Omacron">
          -9 callgsubr
          175 182 132 callsubr
          184 564 -65 305 hintmask 00101000
          575 23 callgsubr
          hintmask 11010100
          38 -1919 -100 callsubr
        </CharString>
        <CharString name="Omega">
          -54 callgsubr
        </CharString>
        <CharString name="Omegagreek">
          -54 callgsubr
        </CharString>
        <CharString name="Oslash">
          152 -18 121 1317 95 callsubr
          -50 callsubr
          endchar
        </CharString>
        <CharString name="Oslashacute">
          152 -18 31 callgsubr
          143 -21 132 callsubr
          353 436 -106 305 hintmask 11010100
          -50 callsubr
          hintmask 00101000
          368 1357 -89 callgsubr
          endchar
        </CharString>
        <CharString name="Otilde">
          -9 callgsubr
          92 44 callgsubr
          89 302 106 753 -176 305 hintmask 00000000
          hintmask 00010100
          565 1696 52 callsubr
          hintmask 00100100
          -52 callgsubr
          hintmask 00010100
          -10 callgsubr
          hintmask 11001010
          136 -1821 -100 callsubr
        </CharString>
        <CharString name="P">
          17 -50 callgsubr
        </CharString>
        <CharString name="Q">
          153 -403 222 161 121 -100 -21 34 -21 1425 124 hstemhm
          86 302 216 167 300 305 hintmask 00000000
          hintmask 10101111
          620 -20 rmoveto
          -250 -67 139 -133 281 hhcurveto
          163 126 59 40 51 hvcurveto
          -2 164 rlineto
          -27 -73 -123 -14 -57 hhcurveto
          hintmask 10011111
          -156 -128 15 159 -3 hvcurveto
          400 74 208 395 -3 439 rrcurveto
          344 -3 -157 297 -384 95 callgsubr
          hintmask 10101111
          3 -357 159 -287 372 -5 rrcurveto
          hintmask 11001111
          39 121 rmoveto
          -202 -66 260 287 -3 hvcurveto
          416 -3 163 354 254 150 callgsubr
          -440 4 -155 -339 -261 hhcurveto
          endchar
        </CharString>
        <CharString name="R">
          129 -1 15 callgsubr
          hstemhm
          1015 293 hintmask 00000000
          hintmask 01101001
          15 hmoveto
          -14 callsubr
          hintmask 10101001
          -53 callsubr
          hintmask 10100011
          76 callsubr
          hintmask 10100101
          -12 -106 rlineto
          hintmask 01110001
          25 callsubr
          hintmask 10101001
          -20 callgsubr
          hintmask 01110001
          116 callsubr
          endchar
        </CharString>
        <CharString name="Racute">
          129 -1 15 callgsubr
          185 -21 hstemhm
          732 436 -153 293 hintmask 0000000000000000
          hintmask 0110100001000000
          15 hmoveto
          -14 callsubr
          hintmask 1010100001000000
          -53 callsubr
          hintmask 1010001001000000
          76 callsubr
          hintmask 1010010001000000
          -12 -106 rlineto
          hintmask 0111000001000000
          25 callsubr
          hintmask 1010100001000000
          -20 callgsubr
          hintmask 0111000001000000
          116 callsubr
          hintmask 0000000110000000
          306 794 -89 callgsubr
          endchar
        </CharString>
        <CharString name="Rcaron">
          124 -1 15 callgsubr
          108 398 hstemhm
          522 727 -238 293 hintmask 0000000110000000
          737 1610 -68 callgsubr
          hintmask 0000000000000000
          -511 -1950 rmoveto
          -14 callsubr
          hintmask 0110100001000000
          -53 callsubr
          hintmask 1010100001000000
          76 callsubr
          hintmask 1010001001000000
          -12 -106 rlineto
          hintmask 1010010001000000
          25 callsubr
          hintmask 0111000001000000
          -20 callgsubr
          hintmask 1010100001000000
          116 callsubr
          endchar
        </CharString>
        <CharString name="Rcommaaccent">
          124 -482 -21 502 15 callgsubr
          hstemhm
          633 223 155 293 hintmask 1000000010000000
          570 -145 -96 callsubr
          hintmask 0000000000000000
          -702 43 rmoveto
          -14 callsubr
          hintmask 0011010001000000
          -53 callsubr
          hintmask 0101010001000000
          76 callsubr
          hintmask 0101000101000000
          -12 -106 rlineto
          hintmask 0101001001000000
          25 callsubr
          hintmask 0011100001000000
          -20 callgsubr
          hintmask 0101010001000000
          116 callsubr
          endchar
        </CharString>
        <CharString name="S">
          42 callgsubr
          hstem
          179 264 321 271 vstem
          32 71 -41 callsubr
        </CharString>
        <CharString name="Sacute">
          42 callgsubr
          146 -21 148 callgsubr
          171 436 -286 271 hintmask 11010100
          32 71 -103 callgsubr
          hintmask 00101000
          623 1217 -89 callgsubr
          endchar
        </CharString>
        <CharString name="Scaron">
          42 callgsubr
          69 398 148 callgsubr
          -39 727 -367 271 hintmask 11010100
          32 71 -103 callgsubr
          hintmask 00101000
          535 1238 0 callsubr
        </CharString>
        <CharString name="Scircumflex">
          42 callgsubr
          148 -21 148 callgsubr
          -87 728 -320 271 hintmask 11010100
          32 71 -103 callgsubr
          hintmask 00101000
          359 1239 -88 callgsubr
        </CharString>
        <CharString name="T">
          72 0 100 1308 68 callsubr
          802 hlineto
          9 100 -268 27 -81 callgsubr
        </CharString>
        <CharString name="Tbar">
          75 0 100 598 142 568 68 callsubr
          802 hlineto
          9 100 -268 27 74 571 rlineto
          266 hlineto
          16 142 rlineto
          -263 hlineto
          74 568 277 -24 7 -395 149 1 77 532 rlineto
          -1268 hlineto
          -90 -533 156 1 133 394 274 24 -74 -568 rlineto
          -233 hlineto
          -16 -142 rlineto
          231 hlineto
          -74 -571 -248 -27 rlineto
          endchar
        </CharString>
        <CharString name="Tcaron">
          75 0 138 callsubr
          88 398 hstemhm
          76 1358 -914 727 hintmask 00101000
          735 1610 -68 callgsubr
          hintmask 11010000
          -306 -1950 rmoveto
          802 hlineto
          9 100 -268 27 -81 callgsubr
        </CharString>
        <CharString name="Thorn">
          -1 0 97 245 126 609 125 217 107 hstem
          980 294 vstem
          9 hmoveto
          602 hlineto
          8 98 -174 29 28 219 rlineto
          -2 28 38 -2 74 hhcurveto
          482 184 245 263 -5 hvcurveto
          200 -3 -111 152 -365 hhcurveto
          -70 -73 -5 -6 -69 hvcurveto
          26 204 168 24 12 107 rlineto
          -591 hlineto
          -13 -107 140 -24 -164 -1268 -142 -30 rlineto
          471 375 rmoveto
          76 589 rlineto
          10 45 56 6 44 hhcurveto
          189 76 -86 -175 4 hvcurveto
          -224 7 -143 -124 -222 hhcurveto
          -46 -40 0 4 -46 hvcurveto
          endchar
        </CharString>
        <CharString name="U">
          -25 callsubr
          92 callsubr
          110 callsubr
          152 428 -103 callsubr
          hintmask 11010000
          39 callgsubr
          hintmask 10110000
          38 callsubr
          endchar
        </CharString>
        <CharString name="Uacute">
          -25 callsubr
          165 -21 92 callsubr
          366 436 hintmask 00010100
          891 -60 callgsubr
          hintmask 00000000
          -646 -1238 -103 callsubr
          hintmask 10101000
          39 callgsubr
          hintmask 11001000
          38 callsubr
          endchar
        </CharString>
        <CharString name="Ubreve">
          -25 callsubr
          109 186 92 callsubr
          164 156 hintmask 00010100
          900 1631 -80 callgsubr
          hintmask 00000000
          -748 -1203 -103 callsubr
          hintmask 10101000
          39 callgsubr
          hintmask 11001000
          38 callsubr
          endchar
        </CharString>
        <CharString name="Ucircumflex">
          -25 callsubr
          167 -21 92 callsubr
          108 728 hintmask 00000000
          hintmask 10101000
          152 428 -103 callsubr
          hintmask 11001000
          39 callgsubr
          hintmask 10101000
          38 callsubr
          hintmask 00010100
          475 1183 -88 callgsubr
        </CharString>
        <CharString name="Udieresis">
          -25 callsubr
          168 297 92 callsubr
          119 -15 callsubr
          hintmask 00010110
          1114 1690 -105 callgsubr
          hintmask 00000000
          -525 -1262 -103 callsubr
          hintmask 10101000
          39 callgsubr
          hintmask 11001000
          38 callsubr
          endchar
        </CharString>
        <CharString name="Ugrave">
          -25 callsubr
          165 -21 92 callsubr
          119 433 hintmask 00010100
          890 1589 -62 callsubr
          hintmask 00000000
          -738 -1161 -103 callsubr
          hintmask 10101000
          39 callgsubr
          hintmask 11001000
          38 callsubr
          endchar
        </CharString>
        <CharString name="Uhungarumlaut">
          -25 callsubr
          159 -21 92 callsubr
          131 894 hintmask 00000000
          hintmask 10101000
          152 428 -103 callsubr
          hintmask 11001000
          39 callgsubr
          hintmask 10101000
          38 callsubr
          hintmask 00010100
          973 1161 -45 callgsubr
        </CharString>
        <CharString name="Umacron">
          -25 callsubr
          195 182 92 callsubr
          188 564 hintmask 00010100
          620 23 callgsubr
          hintmask 00000000
          -488 -1471 -103 callsubr
          hintmask 10101000
          39 callgsubr
          hintmask 11001000
          38 callsubr
          endchar
        </CharString>
        <CharString name="Uogonek">
          150 154 callsubr
          267 118 1294 130 -105 105 hstemhm
          137 585 -570 280 47 252 hintmask 00000000
          hintmask 11010110
          152 428 rmoveto
          -261 2 154 -187 346 4 5 1 5 hhcurveto
          -53 -39 -53 -49 -45 -69 -24 -33 -13 -50 -1 -36 rrcurveto
          -86 -1 57 -71 119 hhcurveto
          133 105 61 67 65 hvcurveto
          -32 105 rlineto
          hintmask 11011000
          -44 -54 -42 -24 -47 hhcurveto
          -31 -31 23 61 2 hvcurveto
          54 58 79 73 73 vhcurveto
          235 61 141 188 49 375 100 765 rcurveline
          127 25 13 105 rlineto
          -451 hlineto
          -11 -105 142 -26 -103 -765 rlineto
          -341 -44 -112 -187 -237 hhcurveto
          hintmask 11010110
          -172 -96 121 201 -2 hvcurveto
          52 6 68 9 77 vhcurveto
          102 774 177 26 11 105 rlineto
          hintmask 11011000
          -600 hlineto
          -13 -106 rlineto
          hintmask 11101000
          140 -24 rlineto
          hintmask 11010110
          -105 -799 -6 -59 -2 -54 1 -52 rlinecurve
          endchar
        </CharString>
        <CharString name="Uring">
          -25 callsubr
          2 115 254 115 92 callsubr
          154 171 331 170 hintmask 00000000
          hintmask 10100100
          152 428 -103 callsubr
          hintmask 11000100
          39 callgsubr
          hintmask 10100100
          38 callsubr
          hintmask 00011011
          742 1096 10 callgsubr
        </CharString>
        <CharString name="Utilde">
          -25 callsubr
          112 44 callgsubr
          152 280 110 753 hintmask 00000000
          hintmask 00001010
          610 1696 52 callsubr
          hintmask 00010010
          -52 callgsubr
          hintmask 00001010
          -10 callgsubr
          hintmask 00000000
          -390 -1373 -103 callsubr
          hintmask 10100100
          39 callgsubr
          hintmask 11000100
          38 callsubr
          endchar
        </CharString>
        <CharString name="V">
          -41 6 -21 1406 131 -106 106 hstemhm
          20 1401 110 callsubr
          381 -15 rmoveto
          244 5 650 1402 131 24 15 106 rlineto
          -482 hlineto
          -10 -106 rlineto
          hintmask 11010000
          158 -25 -407 -908 -88 -239 -23 239 -121 908 rlineto
          hintmask 10110000
          157 25 10 106 rlineto
          -583 hlineto
          -12 -105 131 -26 rlineto
          endchar
        </CharString>
        <CharString name="W">
          46 callgsubr
          hstemhm
          0 2129 110 callsubr
          334 -10 rmoveto
          260 hlineto
          389 971 101 -971 rlineto
          262 hlineto
          629 1402 142 25 12 105 rlineto
          -518 hlineto
          -11 -106 185 -26 -389 -929 -81 -217 -11 233 rlineto
          hintmask 11010000
          -93 914 149 25 rlineto
          hintmask 10110000
          14 106 rlineto
          -577 hlineto
          -10 -105 141 -24 14 -135 -323 -810 -69 -204 -28 233 rlineto
          hintmask 11010000
          -104 914 rlineto
          hintmask 10110000
          28 callsubr
        </CharString>
        <CharString name="Wacute">
          46 callgsubr
          123 callsubr
          0 2129 -1128 436 hintmask 00010100
          1094 -60 callgsubr
          hintmask 00000000
          -667 -1676 -73 callsubr
        </CharString>
        <CharString name="Wcircumflex">
          46 callgsubr
          167 -21 hstemhm
          0 2129 -1386 728 hintmask 00000000
          hintmask 10101000
          334 -10 rmoveto
          260 hlineto
          389 971 101 -971 rlineto
          262 hlineto
          629 1402 142 25 12 105 rlineto
          -518 hlineto
          -11 -106 185 -26 -389 -929 -81 -217 -11 233 rlineto
          hintmask 11001000
          -93 914 149 25 rlineto
          hintmask 10101000
          14 106 rlineto
          -577 hlineto
          -10 -105 141 -24 14 -135 -323 -810 -69 -204 -28 233 rlineto
          hintmask 11001000
          -104 914 rlineto
          hintmask 10101000
          5 callsubr
          rlineto
          hintmask 00010100
          698 220 -88 callgsubr
        </CharString>
        <CharString name="Wdieresis">
          46 callgsubr
          106 callgsubr
          0 2129 -1375 -15 callsubr
          hintmask 00010110
          1317 1690 -105 callgsubr
          hintmask 00000000
          -546 -1700 -73 callsubr
        </CharString>
        <CharString name="Wgrave">
          46 callgsubr
          123 callsubr
          0 2129 -1375 433 hintmask 00010100
          1093 1589 -62 callsubr
          hintmask 00000000
          -759 -1599 -73 callsubr
        </CharString>
        <CharString name="X">
          -40 callsubr
        </CharString>
        <CharString name="Y">
          -32 -31 callgsubr
        </CharString>
        <CharString name="Yacute">
          58 callgsubr
          165 -21 119 callsubr
          -724 436 -88 callsubr
          hintmask 00010100
          581 1491 -89 callgsubr
          endchar
        </CharString>
        <CharString name="Ycircumflex">
          58 callgsubr
          167 -21 119 callsubr
          -982 728 -88 callsubr
          hintmask 00010100
          317 1513 -88 callgsubr
        </CharString>
        <CharString name="Ydieresis">
          58 callgsubr
          168 297 119 callsubr
          -971 -15 callsubr
          -88 callsubr
          hintmask 00010110
          804 1592 -92 callsubr
        </CharString>
        <CharString name="Ygrave">
          58 callgsubr
          165 -21 119 callsubr
          -971 433 -88 callsubr
          hintmask 00010100
          580 1491 35 callsubr
        </CharString>
        <CharString name="Z">
          51 callsubr
          hstemhm
          -32 1292 117 callgsubr
          -1 hmoveto
          -30 callsubr
          hintmask 11011000
          832 1171 rlineto
          hintmask 11101000
          4 callsubr
        </CharString>
        <CharString name="Zacute">
          51 callsubr
          123 callsubr
          -32 1292 -628 436 hintmask 00000000
          hintmask 11100100
          -1 hmoveto
          -30 callsubr
          hintmask 11010100
          832 1171 rlineto
          hintmask 11100100
          -49 callsubr
          hintmask 00001010
          757 1500 -89 callgsubr
          endchar
        </CharString>
        <CharString name="Zcaron">
          51 callsubr
          88 398 hstemhm
          -32 1292 -812 727 hintmask 00001010
          663 1610 -68 callgsubr
          hintmask 00000000
          -449 -1950 -3 callsubr
        </CharString>
        <CharString name="Zdotaccent">
          51 callsubr
          132 callgsubr
          -32 1292 -657 335 hintmask 00001010
          750 1647 -93 callsubr
          hintmask 00000000
          -751 -1647 -3 callsubr
        </CharString>
        <CharString name="a">
          -8 callgsubr
          hstem
          70 284 vstem
          -107 callsubr
          endchar
        </CharString>
        <CharString name="aacute">
          -8 callgsubr
          77 503 98 callsubr
          279 487 hintmask 11010000
          -107 callsubr
          hintmask 00101000
          219 1100 5 callgsubr
        </CharString>
        <CharString name="abreve">
          -8 callgsubr
          137 186 98 callsubr
          98 152 hintmask 11010000
          -107 callsubr
          hintmask 00101000
          254 1160 -91 callsubr
        </CharString>
        <CharString name="acircumflex">
          -8 callgsubr
          71 427 98 callsubr
          24 729 hintmask 11010000
          -107 callsubr
          hintmask 00101000
          -36 1095 18 callgsubr
        </CharString>
        <CharString name="acute">
          -718 1240 503 hstem
          50 487 vstem
          135 1240 5 callgsubr
        </CharString>
        <CharString name="acute.cap">
          -750 1687 -21 hstem
          36 436 vstem
          129 -60 callgsubr
          endchar
        </CharString>
        <CharString name="adieresis">
          -8 callgsubr
          197 319 98 callsubr
          44 33 callsubr
          hintmask 11010000
          -107 callsubr
          hintmask 00101100
          468 1220 -74 callsubr
        </CharString>
        <CharString name="ae">
          451 -74 callgsubr
        </CharString>
        <CharString name="aeacute">
          451 -20 161 316 116 458 132 -129 129 77 503 98 callsubr
          475 487 79 270 hintmask 00001010
          914 1240 -89 callsubr
          hintmask 00000000
          -447 -1332 rmoveto
          169 137 156 126 75 hvcurveto
          -166 42 118 -116 225 hhcurveto
          233 162 135 84 57 hvcurveto
          -56 94 rlineto
          -86 -83 -106 -66 -136 hhcurveto
          -143 -48 126 190 5 hvcurveto
          223 6 415 127 -6 321 -3 141 -91 114 -213 -3 -105 -2 -98 -32 -86 -56 12 90 rcurveline
          -101 -32 rlineto
          17 -59 -78 15 -64 hhcurveto
          -451 -258 -409 -353 -237 80 -184 232 hvcurveto
          653 593 rmoveto
          hintmask 11100101
          178 14 74 283 173 hhcurveto
          62 35 -47 -97 2 hvcurveto
          hintmask 11010101
          4 -200 -229 -110 -135 -7 rrcurveto
          hintmask 11100101
          -570 -419 rmoveto
          -79 -32 116 153 257 126 351 280 22 21 -2 -4 20 hvcurveto
          -100 -642 22 23 rlineto
          -4 vlineto
          -99 -60 -110 -149 -110 hhcurveto
          endchar
        </CharString>
        <CharString name="afii10017">
          -24 callsubr
          hstem
          -141 1507 vstem
          -3 -102 callsubr
          endchar
        </CharString>
        <CharString name="afii10018">
          6 -17 118 -101 97 697 137 468 123 -106 106 hstemhm
          922 292 hintmask 00000000
          hintmask 10110100
          -4 hmoveto
          hintmask 01110100
          259 85 callgsubr
          hintmask 10110100
          385 254 213 359 243 -166 133 -319 -84 -70 -13 -11 -44 hvcurveto
          65 499 414 -14 36 -237 rlineto
          162 hlineto
          31 367 rlineto
          -1052 hlineto
          hintmask 01101100
          -13 -106 151 -26 -163 -1263 -156 -30 rlineto
          hintmask 10110100
          422 13 rmoveto
          87 80 callgsubr
          -75 -41 3 6 -31 hvcurveto
          endchar
        </CharString>
        <CharString name="afii10019">
          -72 callsubr
        </CharString>
        <CharString name="afii10020">
          -179 0 97 1300 125 -105 105 hstemhm
          -3 1157 117 callsubr
          -3 hmoveto
          703 hlineto
          10 97 -266 30 165 1279 56 callsubr
          hintmask 10110000
          64 callsubr
        </CharString>
        <CharString name="afii10021">
          121 0 130 1281 111 hstem
          1057 366 vstem
          -34 130 rmoveto
          -5 -32 -37 -343 121 callgsubr
          877 hlineto
          10 -87 -13 107 callsubr
          -166 25 rcurveline
          -33 29 rlineto
          -12 hlineto
          165 1260 147 26 12 106 rlineto
          -1127 hlineto
          -12 -106 212 -25 -15 -122 -91 -744 -223 -327 -65 -68 rlinecurve
          192 hmoveto
          71 87 179 400 75 640 17 154 rcurveline
          346 hlineto
          -167 -1281 rlineto
          endchar
        </CharString>
        <CharString name="afii10022">
          6 -28 callsubr
        </CharString>
        <CharString name="afii10023">
          94 callsubr
          168 297 74 callgsubr
          -791 -15 callsubr
          hintmask 00010110
          999 1690 -105 callgsubr
          hintmask 00000000
          -570 -1690 -101 callgsubr
        </CharString>
        <CharString name="afii10024">
          67 callgsubr
          hstemhm
          -46 2187 hintmask 00000000
          hintmask 10111000
          -46 hmoveto
          335 hlineto
          hintmask 11011000
          -20 callsubr
          hintmask 10111000
          73 563 rlineto
          81 hlineto
          145 59 callgsubr
          317 hlineto
          11 97 -82 30 -115 50 -182 560 -169 69 rlinecurve
          505 583 143 -2 callsubr
          135 -25 -458 -578 rlineto
          -130 hlineto
          75 578 161 -14 callgsubr
          -586 hlineto
          -13 -106 150 -25 rlineto
          hintmask 11011000
          -42 callgsubr
        </CharString>
        <CharString name="afii10025">
          -63 -12 105 callgsubr
          hstemhm
          813 324 -293 297 117 callgsubr
          96 callgsubr
          hintmask 11110000
          49 callgsubr
          hintmask 11101000
          -45 callsubr
          hintmask 11110000
          17 callgsubr
          endchar
        </CharString>
        <CharString name="afii10026">
          364 97 callsubr
          9 1695 vstem
          9 hmoveto
          -27 callgsubr
        </CharString>
        <CharString name="afii10027">
          364 -38 callgsubr
          113 104 hstemhm
          9 1695 -1149 268 hintmask 00101000
          943 1635 -95 callgsubr
          hintmask 11010000
          -934 -1635 -25 callgsubr
        </CharString>
        <CharString name="afii10028">
          117 0 97 593 131 callsubr
          hstem
          6 1445 vstem
          6 hmoveto
          -44 callgsubr
          75 578 22 callgsubr
          -164 70 callsubr
          -30 rlineto
          endchar
        </CharString>
        <CharString name="afii10029">
          132 0 86 -86 98 -93 -21 1423 115 hstemhm
          -38 1529 hintmask 00000000
          hintmask 00111000
          -38 27 rmoveto
          -32 44 71 -11 60 hhcurveto
          130 80 89 216 83 hvcurveto
          88 222 73 338 46 412 17 146 rcurveline
          360 hlineto
          hintmask 01011000
          96 callsubr
          618 hlineto
          hintmask 10011000
          9 86 -174 41 163 1264 100 callsubr
          -44 -433 -82 -337 -86 -161 rlinecurve
          -63 -34 -33 -35 -51 hhcurveto
          -77 -54 31 18 -24 hvcurveto
          endchar
        </CharString>
        <CharString name="afii10030">
          675 -56 callsubr
        </CharString>
        <CharString name="afii10031">
          325 0 97 611 130 callsubr
          hstem
          9 1640 vstem
          -64 callsubr
          endchar
        </CharString>
        <CharString name="afii10032">
          152 -20 121 1317 95 callsubr
          -65 callsubr
          endchar
        </CharString>
        <CharString name="afii10033">
          261 0 97 1301 124 -106 106 hstemhm
          9 1575 117 callsubr
          41 callsubr
          rlineto
          hintmask 10110000
          163 1264 149 25 rlineto
          hintmask 11010000
          9 106 rlineto
          -1409 hlineto
          hintmask 10110000
          109 callsubr
        </CharString>
        <CharString name="afii10034">
          18 -50 callgsubr
        </CharString>
        <CharString name="afii10035">
          90 callgsubr
          hstem
          75 310 vstem
          75 633 -98 callgsubr
          endchar
        </CharString>
        <CharString name="afii10036">
          75 0 100 1308 68 callsubr
          802 hlineto
          9 100 -268 27 -81 callgsubr
        </CharString>
        <CharString name="afii10037">
          83 callsubr
          hstem
          112 1251 vstem
          163 15 -85 callgsubr
          endchar
        </CharString>
        <CharString name="afii10038">
          317 -62 103 1447 106 hstem
          53 274 991 275 vstem
          418 -62 rmoveto
          611 hlineto
          10 101 -169 31 16 125 rlineto
          487 50 220 289 359 vvcurveto
          237 -110 197 -447 31 vhcurveto
          14 104 172 26 12 106 rlineto
          -612 hlineto
          -14 -106 168 -26 -14 -107 rlineto
          -491 -47 -218 -283 -360 vvcurveto
          -245 110 -199 448 -29 vhcurveto
          -16 -122 -165 -29 rlineto
          194 253 rmoveto
          -237 46 -60 173 158 vvcurveto
          241 68 291 355 58 vhcurveto
          149 -967 rmoveto
          125 966 rlineto
          234 -46 60 -165 -157 vvcurveto
          -258 -78 -280 -341 -60 vhcurveto
          endchar
        </CharString>
        <CharString name="afii10039">
          -40 callsubr
        </CharString>
        <CharString name="afii10040">
          334 0 123 -123 132 1284 106 hstemhm
          1004 361 -151 367 110 callsubr
          -19 hmoveto
          hintmask 10101000
          1243 38 callgsubr
          hintmask 01110000
          152 hlineto
          28 105 58 196 31 193 rrcurveto
          -228 hlineto
          162 1259 rlineto
          hintmask 10101000
          158 -14 callgsubr
          hintmask 10110000
          -577 hlineto
          -11 19 callsubr
          -1268 rlineto
          -528 hlineto
          160 1268 165 -30 callgsubr
          -589 hlineto
          -12 -106 141 -25 -162 -32 callgsubr
          -169 -30 rlineto
          endchar
        </CharString>
        <CharString name="afii10041">
          100 0 97 492 141 686 106 hstem
          152 295 vstem
          625 hmoveto
          616 hlineto
          10 97 -149 30 163 1264 145 -14 callgsubr
          -71 callsubr
          -180 -30 rlineto
          endchar
        </CharString>
        <CharString name="afii10042">
          928 0 118 1298 106 hstem
          9 2230 vstem
          9 hmoveto
          2060 hlineto
          12 103 -168 30 162 1258 153 -30 callgsubr
          -589 hlineto
          -12 -106 156 -25 -164 -1273 rlineto
          -444 hlineto
          165 1273 153 -30 callgsubr
          -590 133 callsubr
          -466 hlineto
          164 1274 173 24 12 106 rlineto
          -589 hlineto
          -13 -106 140 75 callgsubr
          endchar
        </CharString>
        <CharString name="afii10043">
          943 0 118 -118 127 1289 106 hstemhm
          1647 395 -152 343 hintmask 00000000
          hintmask 10101000
          9 hmoveto
          1890 hlineto
          10 -87 -13 -169 -6 -106 rrcurveto
          hintmask 01110000
          152 hlineto
          27 105 59 191 31 193 rrcurveto
          -247 hlineto
          163 1264 rlineto
          hintmask 10101000
          153 -30 callgsubr
          hintmask 10110000
          -586 hlineto
          -12 -106 155 -25 -164 -1273 rlineto
          -446 hlineto
          164 1273 153 -30 callgsubr
          -589 133 callsubr
          -468 hlineto
          164 1274 172 24 12 106 rlineto
          -586 hlineto
          -13 -106 140 75 callgsubr
          endchar
        </CharString>
        <CharString name="afii10044">
          342 -17 118 -101 97 697 137 469 121 -100 101 hstemhm
          1283 292 hintmask 00000000
          hintmask 01110100
          339 hmoveto
          271 hlineto
          82 197 -17 47 hhcurveto
          hintmask 10101100
          386 253 213 359 243 -165 133 -320 -84 -70 -13 -11 -44 hvcurveto
          62 484 166 30 rlineto
          hintmask 01110100
          10 101 rlineto
          -938 hlineto
          -91 -533 rlineto
          161 hlineto
          139 406 272 11 -165 -1279 -158 -30 rlineto
          hintmask 10110100
          440 13 rmoveto
          86 80 callgsubr
          -74 -41 3 6 -31 hvcurveto
          endchar
        </CharString>
        <CharString name="afii10045">
          648 55 callsubr
          hstemhm
          928 292 -15 783 hintmask 01001001
          1205 hmoveto
          -101 callsubr
          hintmask 00000000
          -1215 -97 rmoveto
          hintmask 10100110
          262 85 callgsubr
          hintmask 01100110
          -3 callgsubr
          hintmask 10100110
          -12 -106 rlineto
          hintmask 10101010
          -51 callgsubr
          -148 -30 rlineto
          hintmask 01110010
          -36 callsubr
        </CharString>
        <CharString name="afii10046">
          7 55 callsubr
          hstemhm
          928 292 hintmask 00000000
          hintmask 10100110
          1 hmoveto
          hintmask 01100110
          262 85 callgsubr
          hintmask 10100110
          -3 callgsubr
          hintmask 10101010
          -12 -106 rlineto
          hintmask 01110010
          -51 callgsubr
          -148 -30 rlineto
          hintmask 10100110
          -36 callsubr
        </CharString>
        <CharString name="afii10047">
          -2 -23 125 1316 120 hstem
          967 304 vstem
          -34 callsubr
          endchar
        </CharString>
        <CharString name="afii10048">
          871 -20 121 -101 97 611 130 578 106 -104 124 hstemhm
          808 302 683 305 hintmask 00000000
          hintmask 10101110
          1 hmoveto
          hintmask 01101110
          604 13 callgsubr
          289 hlineto
          -2 -26 0 -27 -26 vvcurveto
          hintmask 10101110
          -360 3 162 -289 379 142 callgsubr
          344 -3 -157 297 -384 hhcurveto
          -409 -258 -307 -397 -64 hvcurveto
          -286 hlineto
          hintmask 01110110
          72 553 164 -48 callsubr
          -12 -106 -51 callgsubr
          -149 -30 rlineto
          hintmask 10101110
          1098 551 rmoveto
          416 -3 163 354 254 150 callgsubr
          -440 4 -155 -339 -261 hhcurveto
          -202 -66 260 287 -3 hvcurveto
          endchar
        </CharString>
        <CharString name="afii10049">
          133 0 97 575 114 630 106 -106 122 hstemhm
          204 314 hintmask 00000000
          hintmask 11011000
          -95 hmoveto
          358 hlineto
          100 181 549 123 152 hvcurveto
          32 hlineto
          37 1 117 -1 42 3 -71 -548 rcurveline
          -152 -30 -9 -97 rlineto
          589 hlineto
          9 97 -156 30 163 1265 158 24 rlineto
          hintmask 11101000
          12 106 rlineto
          -300 hlineto
          -149 -35 16 -148 hhcurveto
          hintmask 11011000
          -412 -219 -203 -302 -151 83 -133 165 -54 hvcurveto
          -164 -97 -192 -457 -106 -25 -74 -30 rcurveline
          877 700 rmoveto
          -164 -111 92 180 210 89 148 220 115 42 -17 -2 33 hvcurveto
          -77 -605 rlineto
          -5 -40 -59 -1 -48 hhcurveto
          endchar
        </CharString>
        <CharString name="afii10050">
          -276 0 97 1293 132 -124 124 -105 105 hstemhm
          -20 1201 hintmask 00000000
          hintmask 10101000
          -20 hmoveto
          754 hlineto
          10 97 -300 30 163 1271 492 -34 82 517 rlineto
          -169 hlineto
          -113 -359 rlineto
          -733 hlineto
          hintmask 10011000
          -13 -105 rlineto
          hintmask 11001000
          172 -27 -163 -1263 -172 -30 rlineto
          endchar
        </CharString>
        <CharString name="afii10051">
          398 -5 114 -109 97 627 147 528 122 -111 112 hstemhm
          1345 280 hintmask 00000000
          hintmask 01110100
          257 hmoveto
          680 hlineto
          11 97 -175 31 68 533 rlineto
          24 60 95 39 93 hhcurveto
          198 58 -103 -186 hvcurveto
          hintmask 10110100
          -115 -42 -180 -111 -31 vhcurveto
          -25 -7 -53 -4 -16 2 rrcurveto
          hintmask 01110100
          -8 -99 rlineto
          hintmask 10101100
          -4 16 28 -2 28 hhcurveto
          288 175 304 211 139 -52 222 -334 -170 -132 -52 -37 -80 hvcurveto
          81 628 rlineto
          hintmask 01110100
          382 -21 143 callgsubr
          -1393 hlineto
          -92 -467 rlineto
          161 hlineto
          hintmask 01101100
          138 334 281 21 -164 -1282 -223 -31 rlineto
          endchar
        </CharString>
        <CharString name="afii10052">
          -179 0 97 1300 125 123 callsubr
          -3 1157 -645 436 hintmask 00101000
          602 -60 callgsubr
          hintmask 00000000
          -512 -1666 rmoveto
          703 hlineto
          10 97 -266 30 165 1279 56 callsubr
          hintmask 11010000
          64 callsubr
        </CharString>
        <CharString name="afii10053">
          -11 -16 142 550 186 554 124 hstem
          75 310 vstem
          75 633 rmoveto
          -333 2 154 -316 413 hhcurveto
          265 147 78 45 73 hvcurveto
          42 305 rlineto
          -166 hlineto
          -12 -43 -42 -133 -21 -23 rrcurveto
          -74 -60 -113 -13 -66 hhcurveto
          -213 -85 223 304 -8 hvcurveto
          -1 20 1 20 21 vvcurveto
          197 -20 271 -12 107 -6 34 197 rcurveline
          -597 -22 rlineto
          278 40 138 287 279 hhcurveto
          61 47 -14 -18 38 hvcurveto
          32 -287 rlineto
          193 hlineto
          64 386 -36 10 rlineto
          17 -68 -85 30 -204 hhcurveto
          -476 -350 -347 -560 5 hvcurveto
          endchar
        </CharString>
        <CharString name="afii10054">
          42 callgsubr
          hstem
          179 264 321 271 vstem
          32 71 -41 callsubr
        </CharString>
        <CharString name="afii10055">
          97 callsubr
          3 783 vstem
          3 hmoveto
          -101 callsubr
          endchar
        </CharString>
        <CharString name="afii10057">
          -544 1416 106 hstem
          -171 948 vstem
          165 86 -84 callsubr
          endchar
        </CharString>
        <CharString name="afii10058">
          692 -17 118 -117 238 -222 98 661 137 511 115 hstemhm
          1612 293 hintmask 00000000
          hintmask 10011100
          71 callgsubr
          hintmask 00111100
          96 callsubr
          279 hlineto
          hintmask 10011100
          -1 87 175 -16 45 hhcurveto
          370 267 183 366 235 -167 129 -320 -82 -61 -12 -10 -43 hvcurveto
          66 517 94 callgsubr
          hintmask 01011100
          108 callsubr
          hintmask 10011100
          1135 -167 rmoveto
          81 636 rlineto
          8 34 54 5 50 hhcurveto
          156 103 -98 -159 -243 -124 -158 -212 -67 -43 3 6 -32 hvcurveto
          endchar
        </CharString>
        <CharString name="afii10059">
          855 -17 118 -101 98 610 136 -85 137 520 106 hstemhm
          1810 293 hintmask 00000000
          hintmask 10101100
          9 hmoveto
          hintmask 01101100
          -46 callgsubr
          293 hlineto
          82 190 -17 47 hhcurveto
          hintmask 10011100
          371 267 183 366 235 -167 129 -321 -85 -63 -14 -10 -44 hvcurveto
          67 519 147 -14 callgsubr
          -597 hlineto
          105 callsubr
          rlineto
          hintmask 01101100
          -71 -547 rlineto
          -597 hlineto
          71 547 168 -14 callgsubr
          -591 hlineto
          -13 -106 140 -35 callsubr
          hintmask 10011100
          1306 14 rmoveto
          81 634 rlineto
          2 hlineto
          9 32 58 5 53 hhcurveto
          155 104 -98 -159 -243 -125 -158 -211 -72 -44 4 6 -33 hvcurveto
          endchar
        </CharString>
        <CharString name="afii10060">
          458 -1 100 -99 97 695 141 465 123 -113 114 hstemhm
          1312 289 hintmask 00000000
          hintmask 01110100
          233 hmoveto
          699 hlineto
          10 97 -185 30 86 621 rlineto
          29 64 113 15 82 hhcurveto
          229 5 -109 -346 -49 hvcurveto
          hintmask 10110100
          -30 -210 -144 -28 -11 -100 rlineto
          573 hlineto
          12 100 -139 28 45 358 rlineto
          383 48 -169 65 -279 hhcurveto
          -104 -133 -24 -46 -97 hvcurveto
          75 545 307 -19 143 callgsubr
          -1316 hlineto
          -90 -467 rlineto
          156 hlineto
          hintmask 01101100
          133 331 283 22 -173 -1281 -231 -30 rlineto
          endchar
        </CharString>
        <CharString name="afii10061">
          117 0 97 593 131 callsubr
          113 104 hstemhm
          6 1445 -962 268 hintmask 00010100
          877 1635 -95 callgsubr
          hintmask 11101000
          -871 -1635 rmoveto
          -44 callgsubr
          75 578 22 callgsubr
          -164 70 callsubr
          -30 rlineto
          endchar
        </CharString>
        <CharString name="afii10062">
          83 callsubr
          113 104 135 callsubr
          -902 268 hintmask 00101000
          849 1635 -95 callgsubr
          hintmask 11010000
          -686 -1620 -85 callgsubr
          endchar
        </CharString>
        <CharString name="afii10065">
          -8 callgsubr
          hstem
          70 284 vstem
          -107 callsubr
          endchar
        </CharString>
        <CharString name="afii10066">
          -134 -16 118 855 152 317 197 hstem
          65 264 498 272 vstem
          497 -16 rmoveto
          351 251 320 396 235 -88 174 -277 -232 -166 -161 -186 -76 hvcurveto
          534 96 327 130 315 hhcurveto
          63 13 16 57 7 hvcurveto
          45 266 rlineto
          -129 hlineto
          -56 -98 rlineto
          -26 -16 -25 -18 -25 hhcurveto
          -298 -512 -354 -745 -297 134 -243 298 hvcurveto
          32 118 rmoveto
          -118 -78 138 225 -4 hvcurveto
          227 -5 140 265 187 hhcurveto
          110 63 -88 -219 3 hvcurveto
          -240 4 -89 -308 -213 hhcurveto
          endchar
        </CharString>
        <CharString name="afii10067">
          -149 -19 117 483 73 376 120 hstemhm
          64 272 421 274 -271 278 hintmask 00000000
          hintmask 11110100
          64 450 rmoveto
          -299 175 -170 236 364 199 213 230 116 -71 116 -202 -2 vhcurveto
          hintmask 11111000
          206 72 60 106 123 vvcurveto
          95 -88 100 -234 vhcurveto
          hintmask 11110100
          -259 -386 -209 -491 hvcurveto
          298 199 rmoveto
          274 15 177 107 80 hhcurveto
          hintmask 11111000
          90 33 -48 -77 -136 -102 -62 -182 -34 hvcurveto
          -137 -288 rmoveto
          41 -4 73 9 46 vhcurveto
          194 32 rlineto
          2 20 18 2 17 hhcurveto
          hintmask 11110100
          130 40 -95 -113 -169 -113 -106 -125 hvcurveto
          hintmask 11111000
          -122 -64 121 166 hvcurveto
          endchar
        </CharString>
        <CharString name="afii10068">
          -399 -20 159 867 157 hstem
          17 281 254 293 vstem
          17 239 rmoveto
          -142 132 -117 209 134 164 54 81 78 vhcurveto
          -31 117 rlineto
          -52 -76 -59 -41 -115 hhcurveto
          -47 callgsubr
        </CharString>
        <CharString name="afii10069">
          -123 -20 124 899 116 428 135 hstem
          72 283 483 277 vstem
          72 436 rmoveto
          -273 150 -183 245 496 152 617 419 344 -108 322 -385 -100 -154 -35 -91 -107 vhcurveto
          70 -81 rlineto
          61 91 72 11 62 hhcurveto
          187 82 -136 -325 11 hvcurveto
          20 -40 -49 13 -61 hhcurveto
          -382 -232 -331 -352 hvcurveto
          436 -332 rmoveto
          -115 -38 124 227 292 136 256 193 62 50 -11 -28 42 hvcurveto
          -445 -5 -85 -415 -240 hhcurveto
          endchar
        </CharString>
        <CharString name="afii10070">
          -46 callsubr
          hstem
          72 293 369 270 vstem
          72 430 -94 callgsubr
        </CharString>
        <CharString name="afii10071">
          -46 callsubr
          196 319 124 callgsubr
          -65 300 134 270 -266 300 hintmask 00010101
          869 1360 -106 callsubr
          hintmask 11101010
          -359 -930 -94 callgsubr
        </CharString>
        <CharString name="afii10072">
          666 -20 144 -144 201 -166 6 callsubr
          hstemhm
          399 258 614 257 hintmask 0000000000000000
          hintmask 0010110011000000
          -17 15 rmoveto
          hintmask 0100110011000000
          14 callsubr
          hintmask 0001110011000000
          11 callsubr
          hintmask 0100110011000000
          56 callgsubr
          hintmask 0010100111000000
          -7 callgsubr
          hintmask 0100101011000000
          82 212 rlineto
          hintmask 0100110011000000
          -62 callgsubr
          hintmask 1000101011000000
          -11 callgsubr
        </CharString>
        <CharString name="afii10073">
          61 callsubr
          hstemhm
          673 280 -262 265 hintmask 00000000
          hintmask 10011000
          8 71 71 callsubr
          hintmask 10010100
          21 callsubr
          hintmask 10101000
          146 callgsubr
          hintmask 11010100
          0 callgsubr
          hintmask 11011000
          27 callsubr
        </CharString>
        <CharString name="afii10074">
          -41 callgsubr
          hstemhm
          138 274 341 260 hintmask 00000000
          hintmask 10011100
          -97 callgsubr
          hintmask 10101100
          -99 callgsubr
          hintmask 11001100
          69 550 rlineto
          hintmask 10011100
          -90 callsubr
          endchar
        </CharString>
        <CharString name="afii10075">
          -41 callgsubr
          122 105 35 callgsubr
          -105 256 190 -104 callsubr
          543 1021 -87 callsubr
          endchar
        </CharString>
        <CharString name="afii10076">
          -140 0 92 -71 91 callgsubr
          hstemhm
          806 301 hintmask 00000000
          hintmask 01101100
          106 hmoveto
          55 callgsubr
          266 hlineto
          hintmask 10110100
          72 callsubr
          -21 callgsubr
          hintmask 01101100
          -61 28 -22 callgsubr
          rlineto
          endchar
        </CharString>
        <CharString name="afii10077">
          -107 1 -21 25 8 callgsubr
          hhcurveto
          123 120 90 45 30 hvcurveto
          -6 callgsubr
        </CharString>
        <CharString name="afii10078">
          -28 callgsubr
          147 132 103 25 15 hvcurveto
          -34 75 rlineto
          -16 callsubr
        </CharString>
        <CharString name="afii10079">
          33 -20 -29 callsubr
          41 50 callsubr
          102 1130 hintmask 00000000
          hintmask 00110011
          37 callgsubr
          413 hlineto
          -53 -389 rlineto
          hintmask 01010011
          122 callsubr
          hintmask 10010101
          -29 64 rlineto
          14 callgsubr
          hintmask 00111011
          66 487 rlineto
          hintmask 00110011
          -61 28 30 callgsubr
          endchar
        </CharString>
        <CharString name="afii10080">
          -107 47 callsubr
          hstem
          65 102 callgsubr
          vstem
          -63 callgsubr
          endchar
        </CharString>
        <CharString name="afii10081">
          -57 callgsubr
        </CharString>
        <CharString name="afii10082">
          -40 callgsubr
        </CharString>
        <CharString name="afii10083">
          52 callgsubr
          hstem
          67 283 vstem
          442 -20 -94 callsubr
          endchar
        </CharString>
        <CharString name="afii10084">
          -76 callsubr
        </CharString>
        <CharString name="afii10085">
          -199 12 callsubr
          hstem
          820 245 vstem
          -35 -107 callgsubr
          endchar
        </CharString>
        <CharString name="afii10086">
          445 -519 -29 callsubr
          499 126 -91 -21 1043 126 -20 -20 402 -20 hstemhm
          70 281 251 547 -404 131 493 281 hintmask 0000000000000000
          hintmask 0110101101100000
          408 -20 rmoveto
          hintmask 0110101110100000
          115 88 43 49 58 hvcurveto
          -41 -275 -26 -176 -6 vvcurveto
          -96 -4 79 -38 96 hhcurveto
          144 99 115 29 19 hvcurveto
          hintmask 1010101110100000
          -29 64 rlineto
          hintmask 1001101101100000
          -46 -55 -23 -9 -21 hhcurveto
          -25 -13 25 51 7 hvcurveto
          40 284 rlineto
          hintmask 0110101110100000
          -8 31 33 -6 34 hhcurveto
          422 214 403 353 239 -101 188 -241 -100 -79 -34 -43 -57 hvcurveto
          77 537 -50 27 rlineto
          -1 hlineto
          hintmask 0110011101100000
          -332 -42 -21 -83 128 -43 -48 -339 rlineto
          hintmask 0110101101100000
          11 -35 -39 9 -41 hhcurveto
          -424 -216 -404 -353 -238 99 -188 239 hvcurveto
          93 154 rmoveto
          -93 -57 107 178 256 88 362 244 46 42 -8 -22 35 hvcurveto
          -42 -294 -39 -268 -33 -219 rrcurveto
          -45 -43 -69 -47 -79 hhcurveto
          434 -9 rmoveto
          116 813 rlineto
          37 42 57 33 64 hhcurveto
          96 59 -107 -177 -257 -87 -361 -241 -39 -35 5 14 -32 hvcurveto
          endchar
        </CharString>
        <CharString name="afii10087">
          -47 callsubr
        </CharString>
        <CharString name="afii10088">
          -29 -20 154 -123 -21 1149 104 callgsubr
          320 203 -181 259 -252 222 hintmask 0000000000000000
          hintmask 1000110010000000
          120 callsubr
          hintmask 1000110100000000
          77 callsubr
          hintmask 0100110100000000
          -14 -74 26 -56 69 -20 rrcurveto
          hintmask 1000111000000000
          -59 -34 -47 -47 -64 vvcurveto
          hintmask 1000110010000000
          -75 29 -20 -53 vvcurveto
          -61 -65 108 callgsubr
          hintmask 1000111000000000
          119 callgsubr
          47 46 28 41 22 vhcurveto
          81 35 56 63 13 22 -29 65 rcurveline
          hintmask 1001010100000000
          -46 -56 -20 -10 -22 hhcurveto
          -27 -12 24 52 7 hvcurveto
          -99 callgsubr
          hintmask 1010010010000000
          69 550 rlineto
          hintmask 1000110010000000
          -90 callsubr
          endchar
        </CharString>
        <CharString name="afii10089">
          -83 1 -21 379 73 callsubr
          hintmask 00000000
          hintmask 11001100
          412 359 rmoveto
          110 105 31 46 99 hvcurveto
          -29 callgsubr
          hintmask 11010100
          -17 callgsubr
          hintmask 11100100
          48 385 rlineto
          hintmask 11001100
          1 callsubr
          endchar
        </CharString>
        <CharString name="afii10090">
          593 -20 154 1005 121 callsubr
          344 260 hintmask 00000000
          hintmask 10011110
          59 callsubr
          167 112 87 83 74 hvcurveto
          5 -10 rlineto
          -95 -18 48 -64 120 hhcurveto
          142 105 113 31 18 hvcurveto
          -29 65 rlineto
          -46 -56 -20 -10 -22 hhcurveto
          -27 -12 24 52 7 hvcurveto
          hintmask 10101110
          -5 callsubr
          hintmask 11001110
          69 550 rlineto
          hintmask 10011110
          82 callgsubr
        </CharString>
        <CharString name="afii10091">
          591 -20 154 -123 -21 1149 121 callsubr
          323 204 -182 259 -251 221 hintmask 0000000000000000
          hintmask 1000111001000000
          59 callsubr
          hintmask 1000111010000000
          167 112 87 83 74 hvcurveto
          5 -10 rlineto
          hintmask 0100111010000000
          -14 -75 26 -55 70 -20 rrcurveto
          hintmask 1000111100000000
          -57 -32 -50 -48 -65 vvcurveto
          hintmask 1000111001000000
          79 callgsubr
          hintmask 1000111100000000
          118 callsubr
          48 49 29 42 22 vhcurveto
          79 36 53 60 13 22 -29 65 rcurveline
          hintmask 1001011010000000
          -46 -56 -20 -10 -22 hhcurveto
          -27 -12 24 52 7 hvcurveto
          -5 callsubr
          hintmask 1010011001000000
          69 550 rlineto
          hintmask 1000111001000000
          82 callgsubr
        </CharString>
        <CharString name="afii10092">
          8 -23 122 517 166 175 171 -171 206 hstemhm
          52 80 168 273 375 263 hintmask 00000000
          hintmask 11011110
          300 345 rmoveto
          -242 165 -126 209 303 234 232 257 235 -116 81 -157 -134 -111 -69 -74 -69 vhcurveto
          hintmask 11101110
          59 158 107 143 139 160 15 21 -57 53 -17 -11 rrcurveto
          -21 -37 -58 -14 -42 hhcurveto
          hintmask 11011110
          -123 -227 35 -154 hhcurveto
          -50 -34 -12 -9 -17 hvcurveto
          -75 -38 -6 -240 8 -93 rrcurveto
          77 hlineto
          4 34 13 31 20 25 rrcurveto
          41 31 50 55 61 hhcurveto
          281 hlineto
          -184 -174 -108 -206 -232 vvcurveto
          273 13 rmoveto
          50 4 48 8 46 vhcurveto
          76 70 88 38 55 hhcurveto
          120 30 -95 -95 -172 -86 -155 -166 -81 -42 121 138 hvcurveto
          endchar
        </CharString>
        <CharString name="afii10093">
          63 callsubr
          361 273 hintmask 0000000000000000
          hintmask 1001100110000000
          483 -23 rmoveto
          28 callgsubr
          73 499 rlineto
          hintmask 0011001110000000
          82 callsubr
          hintmask 1001100110000000
          103 callsubr
          642 181 rmoveto
          hintmask 0011001110000000
          114 callgsubr
          hintmask 0101010110000000
          81 callgsubr
          hintmask 1001001110000000
          -749 -1056 -1 callgsubr
        </CharString>
        <CharString name="afii10094">
          -178 -23 122 517 166 357 -20 44 -20 hstemhm
          128 258 361 273 hintmask 00000000
          hintmask 11011100
          490 -23 rmoveto
          28 callgsubr
          hintmask 11101100
          73 499 rlineto
          hintmask 11011100
          82 callsubr
          103 callsubr
          21 122 -1 callgsubr
        </CharString>
        <CharString name="afii10095">
          127 callgsubr
          hstem
          708 283 vstem
          13 69 -35 callgsubr
        </CharString>
        <CharString name="afii10096">
          455 -25 126 -80 -21 517 130 384 133 -26 -20 hstemhm
          623 102 callgsubr
          hintmask 00000000
          hintmask 01110110
          107 callgsubr
          70 517 rlineto
          185 hlineto
          -1 -27 -1 -26 1 -27 rrcurveto
          hintmask 10110110
          -296 9 145 -166 276 hhcurveto
          374 246 344 386 -10 hvcurveto
          296 -7 -149 163 -275 hhcurveto
          -304 -219 -226 -291 -66 hvcurveto
          -187 hlineto
          hintmask 10101110
          67 491 -61 25 30 callgsubr
          683 -527 rmoveto
          hintmask 10110110
          259 -7 83 337 204 hhcurveto
          110 57 -98 -226 5 hvcurveto
          -263 6 -76 -343 -204 hhcurveto
          hintmask 10101110
          -118 -55 108 226 -5 hvcurveto
          endchar
        </CharString>
        <CharString name="afii10097">
          -78 0 100 -98 -21 495 123 437 120 -10 -20 hstemhm
          123 272 hintmask 00000000
          hintmask 10110100
          -29 hmoveto
          315 hlineto
          104 53 365 112 120 hvcurveto
          175 -1 rlineto
          0 -42 -348 -11 vvcurveto
          hintmask 01101100
          -74 42 -62 112 143 117 114 30 17 vhcurveto
          -30 65 rlineto
          -39 -45 -32 -17 -21 hhcurveto
          -17 -16 17 29 9 119 957 0 hvcurveto
          -131 hlineto
          -67 -116 10 -114 hhcurveto
          hintmask 10110100
          -336 -198 -120 -258 -145 73 -97 154 -39 hvcurveto
          -151 -94 -60 -261 -88 -15 -68 -27 rcurveline
          653 500 rmoveto
          -167 -74 66 125 199 108 46 154 83 48 -3 -3 20 hvcurveto
          -54 -426 rlineto
          -5 -18 -72 1 -28 hhcurveto
          endchar
        </CharString>
        <CharString name="afii10098">
          -423 21 -21 1020 126 hstem
          82 864 vstem
          84 hmoveto
          261 hlineto
          134 1020 rlineto
          414 hlineto
          53 442 rlineto
          -137 hlineto
          -104 -316 rlineto
          -604 hlineto
          -19 -121 130 -42 rlineto
          endchar
        </CharString>
        <CharString name="afii10099">
          -34 -515 139 397 48 callgsubr
          128 108 126 -20 hstem
          271 170 401 282 vstem
          92 153 callsubr
          93 735 rlineto
          138 80 120 110 91 hhcurveto
          66 27 -34 -105 1 hvcurveto
          1 -72 -79 -655 -10 -60 -30 -195 -37 -220 -157 -18 -29 -6 -33 0 -26 3 -22 -112 rcurveline
          -17 18 59 -7 57 hhcurveto
          228 184 180 345 49 hvcurveto
          10 62 99 757 45 vvcurveto
          201 -95 88 -153 -160 -140 -106 -142 -96 vhcurveto
          48 376 rlineto
          273 hlineto
          14 108 rlineto
          -274 hlineto
          29 224 26 callgsubr
          -11 -83 rlineto
          -159 hlineto
          -14 -108 rlineto
          160 hlineto
          endchar
        </CharString>
        <CharString name="afii10100">
          -399 -20 159 867 157 77 503 hstemhm
          17 281 125 487 -358 293 hintmask 00101000
          508 1240 -89 callsubr
          hintmask 11010100
          -406 -1073 rmoveto
          -142 132 -117 209 134 164 54 81 78 vhcurveto
          -31 117 rlineto
          -52 -76 -59 -41 -115 hhcurveto
          -47 callgsubr
        </CharString>
        <CharString name="afii10101">
          -243 -23 114 398 181 388 115 hstem
          67 287 vstem
          67 459 rmoveto
          -310 156 -172 317 138 180 45 34 67 vhcurveto
          28 232 rlineto
          -149 hlineto
          -59 -151 rlineto
          -29 -48 -55 -17 -63 hhcurveto
          -124 -101 117 258 24 0 24 2 24 hvcurveto
          176 -27 181 -16 104 -6 34 181 rcurveline
          -481 hlineto
          223 38 106 165 177 hhcurveto
          71 33 -29 -15 16 hvcurveto
          66 -199 rlineto
          113 hlineto
          49 295 rlineto
          28 -62 -127 35 -135 hhcurveto
          -404 -244 -330 -384 hvcurveto
          endchar
        </CharString>
        <CharString name="afii10102">
          -406 84 callsubr
          hstem
          124 264 116 266 vstem
          18 45 -98 callsubr
          endchar
        </CharString>
        <CharString name="afii10103">
          45 callgsubr
          122 450 -439 282 -125 323 hintmask 00000000
          hintmask 01010010
          133 122 -83 callsubr
          hintmask 10100010
          -90 callgsubr
          hintmask 01010100
          -61 callgsubr
          hintmask 01010010
          -52 callsubr
          hintmask 00001001
          298 1238 -96 callgsubr
        </CharString>
        <CharString name="afii10104">
          45 callgsubr
          92 300 -270 41 callgsubr
          115 300 hintmask 0000110010000000
          661 1360 -106 callsubr
          hintmask 0000000000000000
          -90 -1238 -83 callsubr
          hintmask 0101000100000000
          -90 callgsubr
          hintmask 1010000100000000
          -61 callgsubr
          hintmask 0101001000000000
          -52 callsubr
          endchar
        </CharString>
        <CharString name="afii10105">
          -627 77 callgsubr
          217 319 hstemhm
          -231 779 -259 323 hintmask 00000000
          hintmask 10101000
          148 65 -82 callsubr
          hintmask 11001000
          60 callsubr
          hintmask 10101000
          -9 callsubr
          rlineto
          hintmask 00010100
          180 380 -96 callgsubr
        </CharString>
        <CharString name="afii10106">
          385 -23 122 -94 -21 632 166 231 133 -121 121 hstemhm
          700 259 362 269 hintmask 00000000
          hintmask 01110110
          51 callgsubr
          81 380 33 277 14 116 rcurveline
          298 hlineto
          -67 -559 rlineto
          hintmask 10110110
          -322 -39 168 -155 229 hhcurveto
          303 224 234 244 227 -111 100 -161 -145 -115 -84 -64 -61 hvcurveto
          67 512 rlineto
          -912 hlineto
          hintmask 01101110
          -16 -121 214 -44 -36 -272 -59 -299 -61 -122 rlinecurve
          -37 -18 -18 -21 -18 hhcurveto
          -22 -111 26 8 -10 hvcurveto
          -59 -256 rlineto
          hintmask 01110110
          -9 4 68 -15 23 hhcurveto
          hintmask 10110110
          933 410 rmoveto
          17 133 rlineto
          59 65 80 30 48 hhcurveto
          121 24 -95 53 callgsubr
          -101 -44 101 194 26 hvcurveto
          endchar
        </CharString>
        <CharString name="afii10107">
          512 -23 122 -78 -21 518 130 -32 166 356 -20 28 -20 37 -20 hstemhm
          846 257 365 268 hintmask 0000000000000000
          hintmask 0110001110000000
          37 callgsubr
          425 hlineto
          -8 -64 rlineto
          hintmask 1001010110000000
          -320 -54 179 99 callgsubr
          -161 -149 -117 -89 -64 -60 hvcurveto
          61 517 rlineto
          -258 hlineto
          hintmask 0110100110000000
          -62 -498 rlineto
          -424 hlineto
          67 490 rlineto
          hintmask 1001001110000000
          -61 25 30 callgsubr
          879 -568 rmoveto
          15 131 rlineto
          60 65 82 31 49 hhcurveto
          120 25 -95 53 callgsubr
          -102 -48 101 194 30 hvcurveto
          endchar
        </CharString>
        <CharString name="afii10108">
          -6 65 callsubr
          106 108 148 -20 hstemhm
          745 40 callsubr
          hintmask 00000000
          hintmask 01111010
          -33 callsubr
          hintmask 10111100
          -67 callsubr
          hintmask 01111010
          21 112 29 57 callsubr
          -160 -140 -106 -142 -96 vhcurveto
          45 354 rlineto
          207 hlineto
          11 108 rlineto
          -205 hlineto
          32 246 26 callgsubr
          -13 -105 rlineto
          -126 hlineto
          -11 -108 rlineto
          123 hlineto
          endchar
        </CharString>
        <CharString name="afii10109">
          -140 0 92 -71 91 callgsubr
          97 503 hstemhm
          583 487 -264 301 hintmask 00000110
          668 1240 -89 callsubr
          hintmask 00000000
          -477 -1312 rmoveto
          55 callgsubr
          266 hlineto
          hintmask 01101001
          72 callsubr
          -21 callgsubr
          hintmask 10110001
          -61 28 -22 callgsubr
          rlineto
          endchar
        </CharString>
        <CharString name="afii10110">
          -199 12 callsubr
          122 105 hstemhm
          219 256 345 245 hintmask 11001000
          -35 -107 callgsubr
          hintmask 00110000
          628 1558 -87 callsubr
          endchar
        </CharString>
        <CharString name="afii10145">
          267 0 127 1289 106 hstem
          594 161 vstem
          -1 hmoveto
          603 hlineto
          -15 -348 rlineto
          145 hlineto
          102 348 rlineto
          581 hlineto
          11 97 -155 31 164 1263 141 25 10 106 rlineto
          -554 hlineto
          -11 -106 130 -25 -165 -32 callgsubr
          rlineto
          -540 hlineto
          164 1264 134 -14 callgsubr
          -564 hlineto
          -13 -106 147 101 callsubr
          -154 -30 rlineto
          endchar
        </CharString>
        <CharString name="afii10146">
          150 -17 118 -80 -21 687 133 324 126 -116 117 125 126 -94 94 hstemhm
          1071 295 hintmask 00000000
          hintmask 01110011
          142 hmoveto
          270 85 callgsubr
          hintmask 10110011
          380 254 159 319 226 -165 133 -306 -71 -86 -11 -10 -57 hvcurveto
          49 354 367 -17 -12 -152 rlineto
          144 hlineto
          73 287 rlineto
          -556 hlineto
          17 123 173 34 10 94 rlineto
          -598 hlineto
          -11 -99 rlineto
          hintmask 10101101
          141 -27 -17 -125 rlineto
          -432 hlineto
          -59 -287 rlineto
          148 hlineto
          64 152 260 18 rlineto
          3 hlineto
          -141 -1024 -149 -27 rlineto
          432 6 rmoveto
          77 564 rlineto
          8 34 74 6 52 hhcurveto
          170 77 -111 -143 -192 -118 -140 -221 -73 -41 3 5 -31 hvcurveto
          endchar
        </CharString>
        <CharString name="afii10147">
          149 -20 121 527 181 -52 176 485 124 132 callsubr
          682 306 hintmask 00000000
          hintmask 10111100
          633 -20 rmoveto
          492 258 433 488 -4 hvcurveto
          344 -3 -157 297 -384 95 callgsubr
          -360 3 162 -289 379 hhcurveto
          -234 836 rmoveto
          339 36 151 263 219 hhcurveto
          181 82 -200 -320 5 hvcurveto
          hintmask 11011100
          -40 -36 -58 -49 -74 hhcurveto
          hintmask 10111100
          -87 -66 124 -136 hhcurveto
          -92 -73 -53 -64 -52 hvcurveto
          263 -715 rmoveto
          -202 -66 260 287 -3 hvcurveto
          20 vlineto
          41 37 64 48 77 hhcurveto
          hintmask 11011100
          82 74 -129 134 hhcurveto
          92 69 48 60 49 hvcurveto
          hintmask 10111100
          -368 -27 -148 -267 -232 hhcurveto
          endchar
        </CharString>
        <CharString name="afii10148">
          15 9 -21 1356 185 -138 131 -106 106 7 -20 hstemhm
          38 1397 hintmask 00000000
          hintmask 10001100
          429 -12 rmoveto
          279 hlineto
          428 1112 rlineto
          hintmask 11000100
          197 72 113 47 72 hhcurveto
          9 8 -1 -2 8 hvcurveto
          17 175 rlineto
          5 -9 -36 8 -49 hhcurveto
          -104 -132 -61 -196 -67 hvcurveto
          -301 -847 -84 -250 -43 297 rlineto
          hintmask 10100100
          -150 919 rlineto
          hintmask 10010100
          171 -30 callgsubr
          -591 hlineto
          -13 -105 131 -26 rlineto
          endchar
        </CharString>
        <CharString name="afii10193">
          -10 -20 154 1005 104 callgsubr
          64 199 -183 210 51 260 hintmask 00000000
          hintmask 10011011
          -97 callgsubr
          hintmask 10101011
          -99 callgsubr
          hintmask 11001011
          69 550 rlineto
          hintmask 10011011
          -90 callsubr
          hintmask 10011101
          338 -462 rmoveto
          hintmask 10011011
          -69 16 -25 -49 vvcurveto
          -61 -51 -14 -50 -20 vhcurveto
          65 -74 rlineto
          118 29 128 59 106 vvcurveto
          hintmask 10011101
          74 -27 43 45 vvcurveto
          54 18 27 38 23 vhcurveto
          -46 45 rlineto
          -63 -7 -146 -74 -112 vvcurveto
          endchar
        </CharString>
        <CharString name="afii10194">
          454 -23 122 -78 -21 616 166 201 180 -24 -20 hstemhm
          794 256 -200 282 284 268 hintmask 00000000
          hintmask 01101101
          102 hmoveto
          40 callgsubr
          hintmask 01110011
          133 79 118 105 88 hhcurveto
          61 32 84 callgsubr
          -28 -151 -19 -111 rrcurveto
          hintmask 10101101
          -320 -55 180 99 callgsubr
          -162 hvcurveto
          hintmask 01110011
          -134 -110 -72 -62 -64 hvcurveto
          15 90 13 85 38 vvcurveto
          225 -101 77 -147 -153 -139 -98 -134 -97 vhcurveto
          hintmask 01101101
          18 208 rlineto
          hintmask 10110101
          -51 24 30 callgsubr
          827 -568 rmoveto
          25 140 rlineto
          54 63 76 28 46 hhcurveto
          121 25 -95 53 callgsubr
          -102 -50 102 193 32 hvcurveto
          endchar
        </CharString>
        <CharString name="afii10195">
          -104 -25 126 304 186 440 133 hstem
          65 102 callgsubr
          vstem
          65 437 rmoveto
          -296 9 145 -166 276 hhcurveto
          374 246 344 386 -10 hvcurveto
          296 -7 -149 163 -275 141 callsubr
          314 252 rmoveto
          183 36 83 159 140 hhcurveto
          110 57 -98 -226 5 hvcurveto
          -23 vlineto
          -44 -27 -21 -49 -57 -78 -23 143 -117 hhcurveto
          -38 -37 -18 -27 -33 hvcurveto
          157 -588 rmoveto
          -118 -55 108 226 -5 hvcurveto
          -1 16 0 18 1 17 27 32 31 31 35 -1 rrcurveto
          -2 95 -1 -141 139 hhcurveto
          39 36 16 26 31 hvcurveto
          -186 -35 -80 -160 -139 hhcurveto
          endchar
        </CharString>
        <CharString name="afii10196">
          -233 2 -21 1167 -20 34 -20 21 -20 hstemhm
          2 1176 hintmask 00000000
          hintmask 10011000
          323 -19 rmoveto
          206 hlineto
          374 767 rlineto
          169 82 87 45 62 hhcurveto
          7 7 -1 -2 6 hvcurveto
          hintmask 11001000
          24 189 rlineto
          hintmask 10101000
          5 -9 -44 9 -45 hhcurveto
          -94 -116 -81 -196 -82 hvcurveto
          -201 -474 -74 -181 -17 181 -81 615 rlineto
          hintmask 10011000
          88 -12 -53 49 -111 hhcurveto
          -125 -95 -99 -23 -17 hvcurveto
          29 -71 rlineto
          15 21 25 14 24 hhcurveto
          20 -1 14 -15 7 -40 rrcurveto
          endchar
        </CharString>
        <CharString name="afii10846">
          83 callgsubr
          hstem
          27 270 369 293 vstem
          27 228 -70 callgsubr
        </CharString>
        <CharString name="afii61248">
          634 21 -21 60 109 530 107 -66 137 493 115 45 -20 hstemhm
          173 209 638 210 305 220 hintmask 0000000000000000
          hintmask 1110111110000000
          385 hmoveto
          181 hlineto
          947 1530 rlineto
          -181 hlineto
          hintmask 1101111110000000
          -861 -790 rmoveto
          135 90 49 54 69 hvcurveto
          -43 98 rlineto
          -30 -43 -64 -34 -104 hhcurveto
          -87 -42 66 125 225 91 77 117 32 28 -10 -14 10 hvcurveto
          17 -135 rlineto
          122 hlineto
          38 225 rlineto
          11 -37 -56 38 -127 hhcurveto
          -239 -205 -187 -250 -191 128 -117 170 hvcurveto
          hintmask 1110111110000000
          549 -364 rmoveto
          -176 109 -140 191 259 176 227 219 172 -100 128 -205 -246 -184 -218 -212 vhcurveto
          210 2 rmoveto
          -7 callsubr
          endchar
        </CharString>
        <CharString name="afii61352">
          1254 0 165 372 125 735 136 -125 14 0 104 -104 111 hstemhm
          1611 239 408 243 hintmask 00000000
          hintmask 11000111
          1611 997 rmoveto
          -281 -13 149 -179 255 hhcurveto
          209 275 156 383 15 hvcurveto
          282 13 -147 175 -255 hhcurveto
          -222 -264 -171 -365 -15 hvcurveto
          -1617 -997 rmoveto
          526 hlineto
          8 97 -184 29 122 1161 101 -272 396 -1015 rlineto
          301 hlineto
          183 1397 139 25 rlineto
          hintmask 11001011
          10 104 rlineto
          -491 hlineto
          hintmask 11000111
          -10 -104 rlineto
          hintmask 11100011
          165 -25 -129 -1136 -89 256 rlineto
          hintmask 11001011
          -390 1009 rlineto
          -488 hlineto
          hintmask 11000111
          -13 -104 rlineto
          hintmask 11100011
          164 -25 -166 -1271 -148 -29 rlineto
          1849 901 rmoveto
          hintmask 11010011
          10 214 54 195 176 1 rrcurveto
          123 54 -131 -203 -9 hvcurveto
          -9 -291 -85 -120 -145 -1 rrcurveto
          hintmask 11100011
          -123 -1 -55 135 9 202 rrcurveto
          -311 -998 rmoveto
          807 hlineto
          12 165 rlineto
          -807 hlineto
          endchar
        </CharString>
        <CharString name="agrave">
          -8 callgsubr
          82 498 98 callsubr
          -27 469 hintmask 11010000
          -107 callsubr
          hintmask 00101000
          210 1105 -67 callgsubr
        </CharString>
        <CharString name="amacron">
          -8 callgsubr
          251 182 98 callsubr
          98 563 hintmask 11010000
          -107 callsubr
          hintmask 00101000
          -47 1274 rmoveto
          543 -8 callsubr
        </CharString>
        <CharString name="ampersand">
          413 -28 127 -98 -21 631 201 -177 196 605 115 hstemhm
          61 284 5 270 354 266 -49 232 hintmask 0000000000000000
          hintmask 0100110100000000
          61 352 rmoveto
          hintmask 1000110100000000
          -251 255 -129 311 127 129 23 43 116 vhcurveto
          hintmask 0110110010000000
          -38 66 80 -20 95 hhcurveto
          101 63 6 24 75 hvcurveto
          5 108 -58 -4 -85 14 -55 25 rlinecurve
          -12 6 -16 9 -17 12 rrcurveto
          111 98 71 130 161 vvcurveto
          15 -1 15 -1 13 vhcurveto
          -1 14 14 0 14 hhcurveto
          159 58 172 185 -32 hvcurveto
          -97 hlineto
          -123 -19 -47 -33 -107 hhcurveto
          hintmask 0101110010000000
          -92 -60 19 -75 hhcurveto
          -88 -49 -31 -18 -18 hvcurveto
          -185 vlineto
          19 29 60 19 64 hhcurveto
          12 11 0 -1 11 hvcurveto
          4 -31 4 -37 -41 vvcurveto
          -99 -22 -84 -46 -66 vhcurveto
          -9 10 -144 134 -104 135 -125 225 rlinecurve
          hintmask 0100101100000000
          239 116 260 110 252 vvcurveto
          152 -110 141 -276 -287 -217 -163 -269 -104 39 -132 46 -105 vhcurveto
          hintmask 0100110100000000
          -198 -90 -176 -108 -228 vvcurveto
          hintmask 0100101100000000
          623 536 rmoveto
          -32 71 -32 97 111 vvcurveto
          151 64 118 155 109 26 -107 -90 -177 -129 -95 -161 -79 vhcurveto
          hintmask 1000110100000000
          -339 -510 rmoveto
          116 64 83 95 69 vhcurveto
          111 -188 92 -164 183 -169 rrcurveto
          -18 -65 -76 -8 -87 hhcurveto
          -178 -139 95 184 hvcurveto
          endchar
        </CharString>
        <CharString name="aogonek">
          -80 154 callsubr
          267 160 -128 -21 1040 132 98 callsubr
          209 243 hintmask 00000000
          hintmask 11011000
          404 -20 rmoveto
          130 105 72 76 70 hvcurveto
          8 -13 rlineto
          hintmask 10111100
          -3 -65 30 -41 52 -18 -62 -33 -66 -42 -61 -87 -26 80 callsubr
          129 callgsubr
          69 90 78 114 80 59 33 41 45 12 19 -30 64 rcurveline
          -37 -47 -25 -9 -19 hhcurveto
          -23 -18 22 54 6 hvcurveto
          130 954 -137 -39 rlineto
          19 -59 -88 20 -74 hhcurveto
          -434 -235 -404 -353 hvcurveto
          hintmask 11011000
          -238 96 -188 238 vhcurveto
          95 160 rmoveto
          -95 -50 105 178 257 96 351 262 35 33 -4 -10 29 hvcurveto
          -100 -750 rlineto
          -65 -55 -77 -62 -78 hhcurveto
          endchar
        </CharString>
        <CharString name="approxequal">
          -251 269 209 -42 203 76 209 -42 203 hstemhm
          20 951 -901 951 hintmask 00000000
          hintmask 01001000
          99 330 146 callsubr
          hintmask 10001000
          13 callsubr
          hintmask 01001000
          54 callsubr
          hintmask 00000000
          129 347 146 callsubr
          hintmask 00010100
          13 callsubr
          hintmask 00100100
          54 callsubr
          endchar
        </CharString>
        <CharString name="aring">
          -8 callgsubr
          90 118 308 117 98 callsubr
          103 171 320 169 hintmask 11001000
          -107 callsubr
          hintmask 00110110
          254 1113 -34 callgsubr
          endchar
        </CharString>
        <CharString name="arrowdown">
          112 callgsubr
          678 rmoveto
          33 -187 -377 378 -139 -136 589 -590 590 590 -139 136 -378 -378 34 187 rlineto
          769 -213 vlineto
          endchar
        </CharString>
        <CharString name="arrowleft">
          126 callgsubr
          703 177 rmoveto
          136 139 -379 378 188 -34 rlineto
          768 hlineto
          1 213 rlineto
          -769 hlineto
          -188 -34 379 378 -136 139 -590 -590 rlineto
          endchar
        </CharString>
        <CharString name="arrowright">
          126 callgsubr
          1417 766 rmoveto
          -590 590 -136 -139 379 -378 -188 34 rlineto
          -769 hlineto
          1 -213 rlineto
          768 hlineto
          188 34 -379 -378 136 -139 rlineto
          endchar
        </CharString>
        <CharString name="arrowup">
          112 callgsubr
          143 rmoveto
          213 769 hlineto
          -34 187 378 -378 139 136 -590 590 -589 -590 139 -136 377 378 -33 -187 rlineto
          endchar
        </CharString>
        <CharString name="asciicircum">
          86 1531 -20 hstem
          185 993 vstem
          185 413 rmoveto
          211 hlineto
          284 795 285 -795 rlineto
          213 hlineto
          -397 1118 rlineto
          -204 hlineto
          endchar
        </CharString>
        <CharString name="asciitilde">
          -140 704 209 -42 203 hstemhm
          127 951 hintmask 00000000
          hintmask 01100000
          206 765 146 callsubr
          hintmask 10100000
          13 callsubr
          hintmask 01100000
          54 callsubr
          endchar
        </CharString>
        <CharString name="asterisk">
          89 1149 -20 22 -20 553 -21 hstemhm
          246 1039 147 callgsubr
          334 798 rmoveto
          300 211 68 56 -24 -81 -80 -347 226 -1 -7 346 -8 86 59 -57 255 -211 129 187 rlineto
          hintmask 10110000
          -309 135 -77 27 84 28 335 135 -88 190 -301 -212 -68 -54 23 80 81 347 -226 1 7 -346 8 -84 -59 55 -254 211 -130 -187 rlineto
          hintmask 01110000
          310 -136 76 -26 -84 -28 -334 -135 rlineto
          endchar
        </CharString>
        <CharString name="at">
          692 -433 153 284 165 -162 194 764 141 303 152 hstemhm
          84 191 231 220 442 200 347 178 hintmask 0000000000000000
          hintmask 1101111110000000
          84 336 rmoveto
          -529 346 -240 462 173 155 47 70 93 vhcurveto
          -38 98 rlineto
          -32 -66 -172 -30 -114 hhcurveto
          -362 -286 196 492 488 311 513 523 296 310 -154 -425 -312 -156 -349 -168 -10 -11 16 38 -2 hvcurveto
          -2 39 -4 52 10 103 19 201 51 317 39 153 -187 -42 rcurveline
          39 -56 -101 21 -55 hhcurveto
          -382 -194 -361 -307 hvcurveto
          hintmask 1011111110000000
          -297 154 -134 152 148 151 224 213 90 vhcurveto
          -21 -91 -12 -98 -47 vvcurveto
          hintmask 1101111110000000
          -119 19 -85 90 293 323 342 565 405 -287 245 -409 -561 -552 -491 -734 vhcurveto
          hintmask 1011111110000000
          642 111 rmoveto
          239 90 279 247 56 90 -36 -48 27 vhcurveto
          -215 -27 -237 -465 -122 hhcurveto
          -90 -34 128 118 hvcurveto
          endchar
        </CharString>
        <CharString name="atilde">
          -8 callgsubr
          168 44 callgsubr
          70 284 28 750 hintmask 11001000
          -107 callsubr
          hintmask 00000000
          -53 1251 66 callgsubr
          hintmask 00010100
          -59 callsubr
          hintmask 00100100
          63 callgsubr
        </CharString>
        <CharString name="b">
          -81 -20 131 891 161 364 -20 hstem
          840 281 vstem
          92 -20 rmoveto
          124 43 rlineto
          -20 63 96 -23 83 -49 callgsubr
          endchar
        </CharString>
        <CharString name="backslash">
          -423 -362 1959 hstem
          70 781 vstem
          646 -362 rmoveto
          205 hlineto
          -577 1959 rlineto
          -204 hlineto
          endchar
        </CharString>
        <CharString name="bar">
          112 callsubr
          -186 rmoveto
          195 1966 -195 hlineto
          endchar
        </CharString>
        <CharString name="braceleft">
          -244 -210 155 1656 151 hstem
          248 478 vstem
          248 -67 rmoveto
          -110 -1 89 -33 125 hhcurveto
          110 74 21 26 91 hvcurveto
          0 11 93 3 15 vhcurveto
          -275 hlineto
          95 630 6 41 -17 37 -30 31 rlinecurve
          -29 30 -54 31 -59 31 rrcurveto
          0 116 53 29 17 vhcurveto
          53 33 37 37 8 54 96 631 rcurveline
          276 hlineto
          1 19 16 85 0 vvcurveto
          0 -171 47 -89 -157 -92 -54 -198 -31 vhcurveto
          -81 -534 -4 -23 -25 -21 -36 -19 rlinecurve
          -52 -27 -75 -22 -65 -16 -18 -124 rcurveline
          59 -14 63 -25 43 -29 rrcurveto
          32 -21 20 -24 -22 vvcurveto
          0 -91 -617 -1 -29 vhcurveto
          endchar
        </CharString>
        <CharString name="braceright">
          -244 -206 151 1656 155 hstem
          326 478 vstem
          804 1613 rmoveto
          110 1 -89 33 -125 hhcurveto
          -110 -74 -21 -26 -91 hvcurveto
          0 -11 -93 -3 -15 vhcurveto
          275 hlineto
          -95 -630 -6 -41 17 -37 30 -31 rlinecurve
          29 -30 54 -31 59 -31 rrcurveto
          0 -116 -53 -29 -17 vhcurveto
          -53 -33 -37 -37 -8 -54 -96 -631 rcurveline
          -276 hlineto
          -1 -19 -16 -85 0 vvcurveto
          0 171 -47 89 157 92 54 198 31 vhcurveto
          81 534 4 23 25 21 36 19 rlinecurve
          52 27 75 22 65 16 18 124 rcurveline
          -59 14 -63 25 -43 29 rrcurveto
          -32 21 -20 24 22 vvcurveto
          0 91 617 1 29 vhcurveto
          endchar
        </CharString>
        <CharString name="bracketleft">
          -412 -214 159 1656 154 hstem
          141 450 vstem
          145 39 rmoveto
          -4 -40 0 -36 -34 vvcurveto
          -110 91 -33 126 109 73 21 26 91 vhcurveto
          12 110 rlineto
          -38 -198 2 -39 hhcurveto
          223 1656 rlineto
          275 hlineto
          17 107 rlineto
          0 -172 47 -88 -158 -92 -60 -192 -25 vhcurveto
          -26 -200 -168 -1102 -9 -162 rrcurveto
          endchar
        </CharString>
        <CharString name="bracketright">
          -412 -199 154 1656 159 hstem
          308 450 vstem
          754 1517 rmoveto
          4 40 0 36 34 vvcurveto
          110 -91 33 -126 -109 -73 -21 -26 -91 vhcurveto
          -12 -110 rlineto
          38 198 -2 39 hhcurveto
          -223 -1656 rlineto
          -275 hlineto
          -17 -107 rlineto
          0 172 -47 88 158 92 60 192 25 vhcurveto
          26 200 168 1102 9 162 rrcurveto
          endchar
        </CharString>
        <CharString name="breve">
          -560 1300 186 hstem
          55 152 vstem
          356 1300 -91 callsubr
        </CharString>
        <CharString name="breve.cap">
          -562 1631 186 hstem
          50 156 vstem
          354 1631 21 callgsubr
        </CharString>
        <CharString name="breve.r">
          -280 1265 105 hstem
          179 256 vstem
          553 1265 -87 callsubr
          endchar
        </CharString>
        <CharString name="breve.rcap">
          -426 1635 104 hstem
          111 268 vstem
          499 1635 -95 callgsubr
          endchar
        </CharString>
        <CharString name="brokenbar">
          112 callsubr
          903 rmoveto
          195 877 -195 hlineto
          -1966 vmoveto
          195 877 -195 hlineto
          endchar
        </CharString>
        <CharString name="bullet">
          -419 498 473 hstem
          206 469 vstem
          405 498 rmoveto
          176 94 134 141 108 -88 90 -111 -165 -105 -131 -140 -106 89 -96 110 hvcurveto
          endchar
        </CharString>
        <CharString name="c">
          52 callgsubr
          hstem
          67 283 vstem
          442 -20 -94 callsubr
          endchar
        </CharString>
        <CharString name="cacute">
          52 callgsubr
          77 503 hstemhm
          67 283 202 487 hintmask 00101000
          637 1240 -89 callsubr
          hintmask 11010000
          -110 -1332 -94 callsubr
          endchar
        </CharString>
        <CharString name="caron">
          -483 1250 411 hstem
          59 728 vstem
          275 1250 33 callgsubr
        </CharString>
        <CharString name="caron.cap">
          -485 1610 398 hstem
          87 727 vstem
          302 1610 0 callsubr
        </CharString>
        <CharString name="caronvertical">
          -962 1039 641 hstem
          248 211 vstem
          308 1039 -58 callsubr
        </CharString>
        <CharString name="ccaron">
          52 callgsubr
          87 411 hstemhm
          67 283 -16 728 hintmask 00101000
          550 1250 -65 callgsubr
          hintmask 11010000
          108 -1623 -94 callsubr
          endchar
        </CharString>
        <CharString name="ccedilla">
          -352 154 callgsubr
          312 -21 31 -21 1019 153 hstemhm
          67 283 64 165 hintmask 00000000
          hintmask 10111100
          147 -295 rmoveto
          -26 -152 rlineto
          -16 22 92 -12 53 hhcurveto
          191 100 104 189 58 -10 69 -16 46 hvcurveto
          154 31 101 92 43 61 -53 93 rcurveline
          47 callgsubr
          -119 -66 91 222 -3 hvcurveto
          339 -5 133 211 149 hhcurveto
          53 75 -88 -60 51 hvcurveto
          3 -2 44 -2 3 -3 72 266 rcurveline
          27 -63 -100 15 -77 hhcurveto
          -418 -206 -397 -325 3 hvcurveto
          hintmask 11011100
          3 -284 128 -161 212 -15 3 -25 2 -30 -1 -33 rrcurveto
          -138 -4 -72 -65 -107 hhcurveto
          hintmask 10111100
          -31 -36 6 9 -17 hvcurveto
          endchar
        </CharString>
        <CharString name="ccircumflex">
          52 callgsubr
          71 427 hstemhm
          67 283 -53 729 hintmask 00101000
          382 1235 -78 callgsubr
          hintmask 11010000
          145 -1312 -94 callsubr
          endchar
        </CharString>
        <CharString name="cdotaccent">
          52 callgsubr
          197 319 hstemhm
          67 283 179 323 hintmask 11010000
          442 -20 -94 callsubr
          hintmask 00101000
          228 1380 -96 callgsubr
        </CharString>
        <CharString name="cedilla">
          -798 154 callgsubr
          hstem
          275 165 vstem
          263 30 rmoveto
          5 -27 9 -50 -2 -60 -70 callsubr
          78 -19 100 -25 34 hvcurveto
          -70 4 rlineto
          endchar
        </CharString>
        <CharString name="cent">
          -221 12 -21 1019 152 0 -20 hstemhm
          125 283 110 callsubr
          403 -9 rmoveto
          -38 -206 rlineto
          150 hlineto
          36 198 187 17 123 107 48 68 rlinecurve
          -53 93 rlineto
          47 callgsubr
          -119 -66 91 222 -3 hvcurveto
          hintmask 11010000
          339 -5 133 211 149 hhcurveto
          53 75 -88 -60 51 hvcurveto
          3 -2 44 -2 3 -3 72 266 rcurveline
          -57 24 -88 15 -73 2 47 196 rcurveline
          -150 hlineto
          -49 -209 -331 -73 -163 -346 3 -289 rlinecurve
          hintmask 10110000
          2 -254 103 -155 173 -41 rrcurveto
          endchar
        </CharString>
        <CharString name="circumflex">
          -482 1234 427 hstem
          50 729 vstem
          135 1235 18 callgsubr
        </CharString>
        <CharString name="circumflex.cap">
          -483 1689 -21 hstem
          39 728 vstem
          126 1611 -88 callgsubr
        </CharString>
        <CharString name="colon">
          -734 0 -21 830 -21 hstemhm
          64 313 -214 313 hintmask 01010000
          163 933 -64 callgsubr
          hintmask 10100000
          -99 -809 -64 callgsubr
          endchar
        </CharString>
        <CharString name="colonmonetary">
          322 -21 137 -106 -21 1423 130 -4 -20 hstemhm
          253 259 hintmask 00000000
          hintmask 01101000
          582 16 rmoveto
          -68 -354 rlineto
          107 hlineto
          63 327 rlineto
          hintmask 10011000
          -6 39 41 -4 44 15 14 1 15 hhcurveto
          -61 -318 rlineto
          107 hlineto
          63 330 87 13 72 23 52 17 rlinecurve
          42 13 52 9 33 3 69 278 rcurveline
          -121 10 -92 -151 -36 -33 -63 -26 -68 -16 rlinecurve
          238 1243 33 -13 27 -15 21 -18 rlinecurve
          21 -172 rlineto
          118 hlineto
          58 312 -21 5 -48 10 -30 8 rlinecurve
          -37 12 -52 12 -61 10 53 274 rcurveline
          -107 hlineto
          -50 -262 rlineto
          hintmask 01101000
          2 -29 -29 2 -29 hhcurveto
          -28 -28 -2 -3 -27 hvcurveto
          50 263 rlineto
          -107 hlineto
          -55 -283 rlineto
          -341 -86 -275 -319 -524 vvcurveto
          -285 111 -206 218 -81 vhcurveto
          hintmask 10101000
          131 127 rmoveto
          243 1265 rlineto
          2 16 17 2 17 hhcurveto
          41 40 -3 -7 38 hvcurveto
          -247 -1285 rlineto
          -1 -11 -12 0 -11 hhcurveto
          -49 -43 9 18 -39 hvcurveto
          -93 72 rmoveto
          -72 84 -38 134 2 173 4 392 136 274 189 99 rrcurveto
          endchar
        </CharString>
        <CharString name="comma">
          -734 -491 -21 hstem
          184 239 vstem
          85 24 callgsubr
          endchar
        </CharString>
        <CharString name="commaaccent">
          -910 -482 -21 hstem
          97 223 vstem
          34 -145 -96 callsubr
          endchar
        </CharString>
        <CharString name="copyright">
          491 41 117 208 125 655 101 207 116 hstem
          167 130 245 182 388 91 367 130 vstem
          -11 callsubr
          245 -4 rmoveto
          -239 1 138 -197 239 hhcurveto
          119 117 45 47 57 hvcurveto
          -35 88 rlineto
          -25 -44 -80 -30 -96 hhcurveto
          -111 -125 91 279 2 hvcurveto
          178 1 94 107 120 hhcurveto
          51 45 -13 -26 29 hvcurveto
          48 -120 rlineto
          91 222 hlineto
          22 -41 -103 16 -90 hhcurveto
          -268 -161 -205 -240 2 hvcurveto
          endchar
        </CharString>
        <CharString name="currency">
          263 252 183 510 183 hstem
          342 196 488 196 vstem
          216 243 rmoveto
          130 -129 203 203 rlineto
          -41 68 80 -24 85 hhcurveto
          88 82 26 44 69 hvcurveto
          204 -203 130 129 -204 203 rlineto
          45 69 26 82 88 vvcurveto
          85 -24 79 -42 67 vhcurveto
          201 201 -129 130 -200 -199 rlineto
          47 -70 -85 28 -91 hhcurveto
          -87 -81 -25 -43 -68 hvcurveto
          -204 205 -129 -130 202 -203 rlineto
          -46 -69 -27 -83 -90 vvcurveto
          -92 27 -84 48 -70 vhcurveto
          121 246 rmoveto
          140 109 115 135 135 109 -115 -140 -140 -109 -115 -135 -135 -109 115 140 vhcurveto
          endchar
        </CharString>
        <CharString name="d">
          -55 -20 160 891 16 callgsubr
          hintmask 00000000
          hintmask 11011100
          -83 callgsubr
          hintmask 10111100
          -50 -332 rlineto
          hintmask 11011100
          -87 callgsubr
          endchar
        </CharString>
        <CharString name="dagger">
          -461 1116 173 hstemhm
          118 761 -444 154 hintmask 00000000
          hintmask 11000000
          264 151 rmoveto
          151 hlineto
          hintmask 10100000
          174 857 1 108 rlineto
          265 hlineto
          24 173 rlineto
          -286 hlineto
          59 180 35 177 rlineto
          -229 hlineto
          -22 -177 -2 -180 rlineto
          -291 hlineto
          -25 -173 rlineto
          270 hlineto
          -28 -108 rlineto
          endchar
        </CharString>
        <CharString name="daggerdbl">
          -461 616 175 325 173 hstemhm
          77 801 -445 155 hintmask 00000000
          hintmask 11100000
          228 -51 rmoveto
          151 hlineto
          128 532 2 18 6 100 -1 17 rlinecurve
          233 hlineto
          25 175 rlineto
          hintmask 11010000
          -231 hlineto
          48 217 rlineto
          108 264 vlineto
          25 173 rlineto
          -286 hlineto
          58 180 35 177 rlineto
          -230 hlineto
          -21 -177 -1 -180 rlineto
          -290 hlineto
          -27 -173 rlineto
          271 hlineto
          -27 -107 -23 -218 rlineto
          -231 hlineto
          -29 -175 rlineto
          234 hlineto
          -32 -136 rlineto
          endchar
        </CharString>
        <CharString name="dcaron">
          188 -20 160 869 641 -619 16 callgsubr
          337 211 hintmask 00000000
          hintmask 10101110
          -83 callgsubr
          hintmask 10011110
          -50 -332 rlineto
          hintmask 10101110
          -87 callgsubr
          hintmask 01000001
          884 869 -58 callsubr
        </CharString>
        <CharString name="dcroat">
          152 callsubr
          132 130 133 -20 hstemhm
          70 281 379 258 hintmask 00000000
          hintmask 11011110
          408 -20 rmoveto
          153 108 84 80 61 hvcurveto
          -111 47 -53 105 141 93 110 26 20 vhcurveto
          -29 63 rlineto
          -37 -48 -24 -9 -18 hhcurveto
          -26 -10 30 48 7 hvcurveto
          152 1051 rlineto
          132 hlineto
          16 130 rlineto
          -129 hlineto
          34 231 -55 27 -358 -42 -20 -83 142 -43 -14 -90 rlineto
          -271 hlineto
          -16 -130 rlineto
          268 hlineto
          hintmask 10111110
          -17 -112 rlineto
          hintmask 11011110
          -87 callgsubr
          endchar
        </CharString>
        <CharString name="degree">
          -346 943 141 387 141 hstem
          192 160 364 160 vstem
          522 943 rmoveto
          201 150 143 192 3 hvcurveto
          184 3 -145 150 -191 hhcurveto
          -201 -147 -144 -190 -3 hvcurveto
          -184 -3 142 -151 191 hhcurveto
          8 141 rmoveto
          -102 -78 87 107 2 hvcurveto
          110 1 77 83 107 hhcurveto
          102 79 -86 -107 -2 hvcurveto
          -111 -1 -78 -83 -107 hhcurveto
          endchar
        </CharString>
        <CharString name="dieresis">
          -468 1360 319 hstem
          36 33 callsubr
          vstem
          605 1360 -74 callsubr
        </CharString>
        <CharString name="dieresis.cap">
          -471 1690 297 hstem
          41 -15 callsubr
          vstem
          604 1690 -92 callsubr
        </CharString>
        <CharString name="divide">
          93 194 322 168 179 168 322 hstemhm
          615 320 cntrmask 11100000
          hintmask 00000000
          hintmask 11110000
          746 1031 rmoveto
          87 98 62 115 4 hvcurveto
          76 4 -44 69 -96 hhcurveto
          -84 -96 -70 -107 -4 hvcurveto
          -86 -4 62 -59 73 hhcurveto
          -489 -347 rmoveto
          908 hlineto
          18 179 rlineto
          -908 hlineto
          235 -524 rmoveto
          -85 -4 61 -60 73 hhcurveto
          88 96 63 114 5 hvcurveto
          75 4 -43 70 -96 hhcurveto
          -85 -95 -70 -107 -4 hvcurveto
          endchar
        </CharString>
        <CharString name="dollar">
          -72 2 -21 1555 -20 hstem
          203 258 342 266 vstem
          57 71 rmoveto
          38 -31 143 -45 168 -14 -34 -211 rcurveline
          180 hlineto
          34 211 rlineto
          308 28 175 186 243 vvcurveto
          211 -161 119 -166 102 vhcurveto
          -173 107 -108 81 153 vvcurveto
          141 108 72 127 73 68 -20 -35 51 vhcurveto
          31 -183 rlineto
          158 hlineto
          51 277 -48 29 -88 33 -139 11 rlinecurve
          31 189 rlineto
          -181 hlineto
          -30 -187 rlineto
          -268 -22 -202 -157 -258 vvcurveto
          -217 164 -120 171 -109 vhcurveto
          166 -105 99 -79 -143 vvcurveto
          -148 -112 -85 -168 -93 -78 34 43 -56 vhcurveto
          -14 199 rlineto
          -170 hlineto
          endchar
        </CharString>
        <CharString name="dong">
          52 0 133 124 132 -104 97 684 102 -26 -20 177 108 263 -21 hstemhm
          145 252 hintmask 00000000
          hintmask 11001111
          486 257 rmoveto
          143 80 59 65 62 hvcurveto
          hintmask 10101111
          -4 -36 rlineto
          -1 -11 -1 -10 -9 vvcurveto
          -62 49 -6 64 81 107 23 15 55 vhcurveto
          11 97 rlineto
          -122 hlineto
          117 917 rlineto
          155 hlineto
          13 108 rlineto
          -154 hlineto
          31 242 -41 31 rlineto
          -1 hlineto
          -376 -43 -11 -92 168 -15 -16 -123 rlineto
          -275 hlineto
          -13 -108 rlineto
          274 hlineto
          -20 -157 rlineto
          hintmask 10110111
          14 -41 -44 12 -69 hhcurveto
          -364 -198 -257 -304 hvcurveto
          hintmask 11001111
          -235 147 -115 194 vhcurveto
          76 132 rmoveto
          -96 -69 84 168 hvcurveto
          hintmask 10110111
          198 83 227 197 87 56 -27 -26 25 vhcurveto
          -66 -512 rlineto
          hintmask 11001111
          -37 -33 -75 -75 -109 hhcurveto
          hintmask 10101111
          -445 -389 rmoveto
          918 hlineto
          15 133 rlineto
          -919 hlineto
          endchar
        </CharString>
        <CharString name="dotaccent">
          -889 1360 319 hstem
          33 323 vstem
          174 1360 -96 callgsubr
        </CharString>
        <CharString name="dotaccent.cap">
          -888 1668 -21 hstem
          27 335 vstem
          174 1647 -33 callgsubr
        </CharString>
        <CharString name="dotlessi">
          -37 callsubr
          90 callsubr
          hintmask 00000000
          hintmask 01010100
          133 122 -83 callsubr
          hintmask 10100100
          -90 callgsubr
          hintmask 01011000
          -61 callgsubr
          hintmask 01010100
          -52 callsubr
          endchar
        </CharString>
        <CharString name="dotlessj">
          -626 77 callgsubr
          hstemhm
          -231 779 110 callsubr
          148 65 -82 callsubr
          hintmask 11010000
          60 callsubr
          hintmask 10110000
          -9 callsubr
          rlineto
          endchar
        </CharString>
        <CharString name="e">
          -46 callsubr
          hstem
          72 293 369 270 vstem
          72 430 -94 callgsubr
        </CharString>
        <CharString name="eacute">
          -46 callsubr
          76 503 124 callgsubr
          201 487 -319 270 hintmask 00010100
          651 1240 -89 callsubr
          hintmask 11101010
          -494 -882 -94 callgsubr
        </CharString>
        <CharString name="ebreve">
          -46 callsubr
          136 186 124 callgsubr
          20 152 197 270 hintmask 11101010
          72 430 -106 callgsubr
          hintmask 00010100
          319 727 -91 callsubr
        </CharString>
        <CharString name="ecaron">
          -46 callsubr
          86 411 124 callgsubr
          -17 728 -342 270 hintmask 00010100
          564 1250 -65 callgsubr
          hintmask 11101010
          -276 -1173 -94 callgsubr
        </CharString>
        <CharString name="ecircumflex">
          -46 callsubr
          70 427 124 callgsubr
          -54 729 -306 270 hintmask 00010100
          396 1235 -78 callgsubr
          hintmask 11101010
          -239 -862 -94 callgsubr
        </CharString>
        <CharString name="edieresis">
          -46 callsubr
          196 319 124 callgsubr
          -34 300 103 270 -235 300 hintmask 00010101
          900 1360 -106 callsubr
          hintmask 11101010
          -390 -930 -94 callgsubr
        </CharString>
        <CharString name="edotaccent">
          -46 callsubr
          196 319 124 callgsubr
          178 323 -132 270 hintmask 11101010
          72 430 -106 callgsubr
          hintmask 00010100
          317 787 -96 callgsubr
        </CharString>
        <CharString name="egrave">
          -46 callsubr
          81 498 124 callgsubr
          -105 469 5 270 hintmask 11101010
          72 430 -106 callgsubr
          hintmask 00010100
          275 672 -67 callgsubr
        </CharString>
        <CharString name="eight">
          -54 -20 117 1347 106 hstemhm
          96 257 -87 247 329 261 -171 231 hintmask 00000000
          hintmask 11100100
          96 342 rmoveto
          -264 230 -98 225 vhcurveto
          hintmask 11101000
          273 279 160 269 169 -125 153 -144 102 hvcurveto
          hintmask 11010100
          186 94 143 146 175 vvcurveto
          193 -137 109 -267 -291 -202 -173 -226 -152 100 -124 103 -88 vhcurveto
          hintmask 11100100
          -215 -89 -158 -161 -195 vvcurveto
          631 570 rmoveto
          hintmask 11010100
          -123 87 -91 83 119 vvcurveto
          145 98 98 137 100 84 -64 -145 vhcurveto
          hintmask 11100100
          -155 -89 -108 -116 -60 vhcurveto
          -374 -556 rmoveto
          2 160 92 121 126 68 rrcurveto
          hintmask 11101000
          159 -115 110 -83 -147 vvcurveto
          -162 -118 -101 -140 vhcurveto
          hintmask 11100100
          -156 -75 123 136 hvcurveto
          endchar
        </CharString>
        <CharString name="ellipsis">
          301 -21 322 hstemhm
          58 313 213 313 213 313 cntrmask 01110000
          hintmask 00000000
          hintmask 11110000
          1110 124 -64 callgsubr
          -526 hmoveto
          -77 callgsubr
          -526 hmoveto
          -77 callgsubr
          endchar
        </CharString>
        <CharString name="emacron">
          -46 callsubr
          250 182 124 callgsubr
          20 563 -214 270 hintmask 11101010
          72 430 -106 callgsubr
          hintmask 00010100
          18 841 rmoveto
          543 -8 callsubr
        </CharString>
        <CharString name="emdash">
          757 683 179 hstem
          241 1623 vstem
          241 683 rmoveto
          1590 hlineto
          33 179 rlineto
          -1591 hlineto
          endchar
        </CharString>
        <CharString name="endash">
          267 683 179 hstem
          241 1133 vstem
          241 683 rmoveto
          1097 hlineto
          36 179 rlineto
          -1097 hlineto
          endchar
        </CharString>
        <CharString name="eng">
          1 -524 129 416 -21 983 179 -6 -20 hstemhm
          106 1031 -283 282 hintmask 00000000
          hintmask 11011000
          106 111 callgsubr
          101 742 rlineto
          hintmask 11100100
          149 88 118 92 80 hhcurveto
          67 34 -35 -112 -7 hvcurveto
          -25 -306 -44 -370 -19 -131 rrcurveto
          -247 -39 -59 -177 -173 hhcurveto
          -11 -43 4 8 -18 hvcurveto
          -36 -104 rlineto
          -24 22 66 -13 68 hhcurveto
          268 141 130 394 79 hvcurveto
          47 231 36 308 22 322 rrcurveto
          230 15 -119 71 -144 hhcurveto
          -165 -134 -105 -126 -90 hvcurveto
          hintmask 11011000
          16 201 151 callsubr
          endchar
        </CharString>
        <CharString name="eogonek">
          -210 154 callsubr
          262 161 -137 -21 479 116 461 130 124 callgsubr
          -5 243 131 270 hintmask 00000000
          hintmask 11011011
          398 -176 rmoveto
          -24 -33 -13 -50 -1 -36 rrcurveto
          -86 -1 57 -71 119 hhcurveto
          133 101 callgsubr
          -44 -56 -41 -24 -46 hhcurveto
          -32 -31 23 61 2 hvcurveto
          1 73 107 121 106 89 19 13 16 13 15 14 rrcurveto
          1 1 1 1 1 hvcurveto
          -1 hlineto
          30 27 23 27 15 23 -56 94 rcurveline
          -86 -80 -104 -71 -133 hhcurveto
          hintmask 11011101
          -145 -60 149 172 6 hvcurveto
          225 6 420 129 -6 321 rrcurveto
          141 -3 -94 110 -212 hhcurveto
          -351 -269 -329 -405 -3 hvcurveto
          hintmask 10111101
          -228 -2 119 -227 304 hhcurveto
          18 17 1 2 17 hvcurveto
          hintmask 11011011
          -51 -38 -52 -49 -44 -67 rrcurveto
          hintmask 10111101
          -31 749 rmoveto
          178 15 75 283 176 hhcurveto
          62 37 -46 -98 2 hvcurveto
          4 -199 -234 -111 -137 -7 rrcurveto
          endchar
        </CharString>
        <CharString name="equal">
          -214 127 callsubr
          149 842 142 callsubr
          -92 -700 142 callsubr
          endchar
        </CharString>
        <CharString name="estimated">
          134 -16 143 493 148 445 143 hstem
          121 324 545 310 vstem
          445 238 rmoveto
          382 845 vlineto
          10 51 0 75 86 vvcurveto
          -10 329 -239 200 -296 -5 rrcurveto
          -429 -7 -205 -286 -392 vvcurveto
          -430 235 -257 400 173 189 55 61 86 vhcurveto
          -58 135 rlineto
          -46 -69 -147 -62 -159 hhcurveto
          -130 -115 30 81 -81 hvcurveto
          530 vmoveto
          333 vlineto
          79 74 103 33 119 hhcurveto
          114 80 -27 -42 55 hvcurveto
          -376 vlineto
          endchar
        </CharString>
        <CharString name="eth">
          -91 -20 119 886 125 hstem
          71 282 479 283 vstem
          71 445 rmoveto
          -220 134 -245 285 400 225 361 470 274 -98 269 -225 200 vhcurveto
          144 165 -106 96 rlineto
          0 -83 -104 -65 -74 vhcurveto
          -95 61 -107 50 -75 20 -49 -142 rcurveline
          62 -17 74 -48 68 -54 -149 -163 rcurveline
          109 -93 145 165 113 -121 38 -122 19 -130 rlinecurve
          50 -44 -72 17 -92 hhcurveto
          -302 -254 -251 -414 hvcurveto
          446 -346 rmoveto
          -117 -47 142 164 246 81 334 196 167 38 -189 -68 -3 hvcurveto
          -2 -42 -12 -104 -5 -31 rrcurveto
          -249 -32 -113 -203 -151 hhcurveto
          endchar
        </CharString>
        <CharString name="exclam">
          -574 0 -21 hstem
          126 312 vstem
          247 510 -22 callsubr
          endchar
        </CharString>
        <CharString name="exclamdbl">
          42 0 -21 hstemhm
          126 312 304 312 hintmask 11000000
          247 510 -22 callsubr
          hintmask 10100000
          737 386 -22 callsubr
          endchar
        </CharString>
        <CharString name="exclamdown">
          -574 1344 21 hstem
          297 312 vstem
          488 834 rmoveto
          -175 hlineto
          -251 -1268 rlineto
          295 hlineto
          252 1654 rmoveto
          86 5 -57 59 -73 hhcurveto
          -88 -94 -61 -116 -5 hvcurveto
          -76 -4 43 -69 97 hhcurveto
          84 87 70 107 5 hvcurveto
          endchar
        </CharString>
        <CharString name="f">
          100 callgsubr
          hstemhm
          -233 1136 hintmask 00000000
          hintmask 10111000
          106 -143 rmoveto
          -136 -18 -40 -79 -16 callgsubr
          hintmask 01111000
          -57 -180 rlineto
          hintmask 10111000
          -86 callsubr
          endchar
        </CharString>
        <CharString name="f_f">
          137 -513 152 -152 155 -134 -21 1509 159 -5 -20 362 151 -125 152 hstemhm
          475 64 hintmask 00000000
          hintmask 01010101
          532 -314 rmoveto
          hintmask 00110101
          -57 -180 rlineto
          hintmask 10010011
          -86 callsubr
          -138 -1139 rlineto
          hintmask 01010101
          -136 -18 -40 -79 -16 callgsubr
          -426 167 rmoveto
          hintmask 10010101
          -136 -18 -41 -78 -16 callgsubr
          hintmask 00110101
          140 callgsubr
          hintmask 10010101
          -69 callsubr
          hintmask 10001101
          -8 -48 rlineto
          hintmask 10010101
          144 callgsubr
        </CharString>
        <CharString name="f_f_i">
          32 callsubr
          1169 323 hintmask 0000000000000000
          hintmask 1001010010110000
          1708 1504 rmoveto
          -38 callsubr
          115 65 83 97 2 hvcurveto
          72 1 -57 67 -93 hhcurveto
          -98 -74 -79 -96 -2 hvcurveto
          -1177 -1821 rmoveto
          hintmask 0101010010110000
          140 callgsubr
          hintmask 1001010001110000
          -93 callgsubr
          -138 -1143 rlineto
          145 callgsubr
          hintmask 1001010010110000
          -49 -1 -98 39 -13 6 rrcurveto
          -425 170 rmoveto
          -136 -18 -41 -78 -16 callgsubr
          hintmask 0101010010110000
          140 callgsubr
          hintmask 1001010010110000
          -69 callsubr
          hintmask 1001000110110000
          -8 -48 rlineto
          hintmask 1001010010110000
          -142 -63 -18 -91 rlineto
          131 hlineto
          1302 -874 -83 callsubr
          hintmask 1010100010110000
          -90 callgsubr
          hintmask 1001001010110000
          -61 callgsubr
          hintmask 1001010010110000
          -52 callsubr
          endchar
        </CharString>
        <CharString name="f_f_i_dflt">
          32 callsubr
          hintmask 0000000000000000
          hintmask 1001010010100000
          531 -317 rmoveto
          hintmask 0101010010100000
          140 callgsubr
          hintmask 1001010001100000
          -93 callgsubr
          -138 -1143 rlineto
          145 callgsubr
          hintmask 1001010010100000
          -49 -1 -98 39 -13 6 rrcurveto
          -425 170 rmoveto
          -136 -18 -41 -78 -16 callgsubr
          hintmask 0101010010100000
          140 callgsubr
          hintmask 1001010010100000
          -69 callsubr
          hintmask 1001000110100000
          -8 -48 rlineto
          hintmask 1001010010100000
          -142 -63 -18 -91 rlineto
          131 hlineto
          1302 -874 -83 callsubr
          hintmask 1010100010100000
          -90 callgsubr
          hintmask 1001001010100000
          -61 callgsubr
          hintmask 1001010010100000
          -52 callsubr
          endchar
        </CharString>
        <CharString name="f_f_i_trk">
          769 -513 155 -134 -21 493 -29 callsubr
          1016 159 -16 -20 44 -20 375 152 hstemhm
          -233 1136 -442 1136 -87 41 callgsubr
          hintmask 0000000000000000
          hintmask 1000100110000000
          106 -143 rmoveto
          -136 -18 -40 -79 -16 callgsubr
          hintmask 0100100110000000
          -57 -180 rlineto
          hintmask 1000100110000000
          -86 callsubr
          hintmask 0000000000000000
          556 -1139 rmoveto
          -136 -18 -40 -79 -16 callgsubr
          hintmask 1000100101000000
          -57 -180 rlineto
          hintmask 0100100101000000
          -86 callsubr
          hintmask 1000100101000000
          583 -874 -83 callsubr
          hintmask 0000000000000000
          -90 callgsubr
          hintmask 0001001000010000
          -61 callgsubr
          hintmask 0010010000010000
          -52 callsubr
          hintmask 0001001000100000
          303 1238 -96 callgsubr
        </CharString>
        <CharString name="f_f_l">
          760 -6 callsubr
          159 -5 -20 362 151 -125 152 -145 -20 hstemhm
          475 64 986 277 hintmask 0000000000000000
          hintmask 1001100011000000
          531 -317 rmoveto
          hintmask 0101100011000000
          140 callgsubr
          hintmask 1001100101000000
          -93 callgsubr
          -138 -1143 rlineto
          145 callgsubr
          hintmask 1001100011000000
          -49 -1 -98 39 -13 6 rrcurveto
          hintmask 1001100011100000
          994 432 -26 callgsubr
          hintmask 1010100011100000
          -72 callgsubr
          hintmask 1001100011100000
          78 callsubr
          -1419 -262 rmoveto
          hintmask 1001100011000000
          -136 -18 -41 -78 -16 callgsubr
          hintmask 0101100011000000
          140 callgsubr
          hintmask 1001101001000000
          -69 callsubr
          hintmask 1001010011000000
          -8 -48 rlineto
          hintmask 1001100011000000
          144 callgsubr
        </CharString>
        <CharString name="f_i_trk">
          87 -6 callsubr
          159 -16 -20 44 -20 375 152 hstemhm
          -233 1511 hintmask 0000000000000000
          hintmask 1001100110000000
          106 -147 rmoveto
          -136 -18 -41 -78 -16 callgsubr
          hintmask 0101100110000000
          140 callgsubr
          hintmask 1001100110000000
          -93 callgsubr
          595 -874 -83 callsubr
          hintmask 1010010110000000
          -90 callgsubr
          hintmask 1001001110000000
          -61 callgsubr
          hintmask 1001100110000000
          -52 callsubr
          endchar
        </CharString>
        <CharString name="fi">
          87 -6 callsubr
          159 -16 -20 44 -20 375 152 hstemhm
          -233 1557 -323 323 hintmask 0000000000000000
          hintmask 1001100101000000
          1142 1360 -100 callgsubr
          -1036 -1507 rmoveto
          -136 -18 -41 -78 -16 callgsubr
          hintmask 0101100110000000
          140 callgsubr
          hintmask 1001100110000000
          -93 callgsubr
          595 -874 -83 callsubr
          hintmask 1010010110000000
          -90 callgsubr
          hintmask 1001001110000000
          -61 callgsubr
          hintmask 1001100110000000
          -52 callsubr
          endchar
        </CharString>
        <CharString name="five">
          -165 -350 130 663 150 360 193 -193 209 hstemhm
          675 303 117 callgsubr
          59 -209 rmoveto
          -19 -120 rlineto
          -10 31 89 -11 51 hhcurveto
          403 364 225 366 214 -138 138 -246 -72 -109 -24 -24 -50 hvcurveto
          108 408 rlineto
          518 hlineto
          hintmask 11011000
          56 209 rlineto
          -149 hlineto
          hintmask 11101000
          -22 -16 rlineto
          -595 hlineto
          -160 -717 55 -43 rlineto
          28 70 85 29 89 hhcurveto
          174 83 -86 -166 -211 -198 -200 -322 -31 -39 6 5 -26 hvcurveto
          endchar
        </CharString>
        <CharString name="fl">
          52 -6 callsubr
          159 363 152 -145 -20 hstemhm
          -233 1520 -469 277 hintmask 0000000000000000
          hintmask 1001101100000000
          106 -147 rmoveto
          -136 -18 -41 -78 -16 callgsubr
          hintmask 0101101100000000
          140 callgsubr
          hintmask 1001110100000000
          -93 callgsubr
          hintmask 1001101010000000
          574 -881 -26 callgsubr
          hintmask 1010101010000000
          -72 callgsubr
          hintmask 1001101010000000
          134 callsubr
        </CharString>
        <CharString name="florin">
          -219 982 166 352 190 hstem
          171 881 vstem
          205 -356 rmoveto
          246 hlineto
          166 1338 rlineto
          285 hlineto
          13 166 rlineto
          -277 hlineto
          16 137 rlineto
          191 19 95 24 89 hhcurveto
          117 41 -26 -10 23 hvcurveto
          14 209 rlineto
          7 -17 -46 10 -109 hhcurveto
          -178 -269 -190 -297 -34 hvcurveto
          -8 -55 -210 -57 -10 -109 rlineto
          205 hlineto
          endchar
        </CharString>
        <CharString name="four">
          -19 0 174 966 -20 hstem
          -6 1164 vstem
          47 hmoveto
          610 hlineto
          -49 -375 rlineto
          256 hlineto
          47 375 rlineto
          222 hlineto
          25 182 -219 -15 48 412 -260 -69 -48 -363 -450 -32 117 134 174 234 319 458 111 199 rlinecurve
          -243 116 rlineto
          -39 hlineto
          -189 -409 -298 -521 -187 -238 rrcurveto
          endchar
        </CharString>
        <CharString name="four.numr">
          -240 710 136 callgsubr
          hstemhm
          75 918 hintmask 00000000
          hintmask 10100000
          121 710 1 callgsubr
        </CharString>
        <CharString name="four.superior">
          -240 884 136 callgsubr
          hstemhm
          87 918 hintmask 00000000
          hintmask 10100000
          133 884 1 callgsubr
        </CharString>
        <CharString name="fraction">
          61 callgsubr
        </CharString>
        <CharString name="franc">
          -80 0 98 272 140 885 127 -106 106 hstemhm
          -27 1283 117 callgsubr
          6 hmoveto
          703 hlineto
          8 98 -274 30 32 242 rlineto
          316 hlineto
          18 140 rlineto
          -316 hlineto
          27 200 8 callsubr
          hintmask 11011000
          -13 123 callgsubr
          -113 -881 rlineto
          -217 hlineto
          -18 -140 rlineto
          217 hlineto
          -31 -243 -143 -29 rlineto
          endchar
        </CharString>
        <CharString name="g">
          -88 -514 159 335 -18 callgsubr
          hstem
          70 284 vstem
          160 -271 -39 callgsubr
        </CharString>
        <CharString name="gbreve">
          -88 -514 159 335 -18 callgsubr
          137 186 98 callsubr
          113 152 hintmask 11101000
          160 -271 -95 callsubr
          hintmask 00010100
          262 1160 -91 callsubr
        </CharString>
        <CharString name="gcircumflex">
          -88 -514 159 335 -18 callgsubr
          71 427 98 callsubr
          39 729 hintmask 00010100
          478 1235 -78 callgsubr
          hintmask 11101000
          -233 -1563 -39 callgsubr
        </CharString>
        <CharString name="gcommaaccent">
          -86 -514 159 335 -18 callgsubr
          hstem
          71 284 222 227 vstem
          723 1271 rmoveto
          141 111 9 76 -41 6 -30 53 2 49 rlinecurve
          3 72 34 42 35 25 3 26 rcurveline
          -73 57 -93 -19 -129 -119 -7 -162 rlinecurve
          -5 -104 61 -94 90 -19 rrcurveto
          -562 -1542 -39 callgsubr
        </CharString>
        <CharString name="gdotaccent">
          -88 -514 159 335 -18 callgsubr
          197 319 98 callsubr
          243 323 hintmask 11101000
          160 -271 -95 callsubr
          hintmask 00010100
          232 1220 -96 callgsubr
        </CharString>
</ttFont>
